<?xml version="1.0" encoding="UTF-8"?>
<svg width="60px" height="60px" viewBox="0 0 60 60" version="1.1" xmlns="http://www.w3.org/2000/svg">
    <title>icon-twitter</title>
    <g id="PancakeBunny" stroke="none" stroke-width="1" fill="none" fill-rule="evenodd">
        <g id="Artboard" transform="translate(-591.000000, -666.000000)" fill="#FFFFFF">
            <path d="M621,666 C637.568543,666 651,679.431457 651,696 C651,712.568543 637.568543,726 621,726 C604.431457,726 591,712.568543 591,696 C591,679.431457 604.431457,666 621,666 Z M624.193457,684.28308 C621.57041,685.236407 619.912644,687.693874 620.101503,690.384376 L620.164456,691.422443 L619.115237,691.295333 C615.29608,690.808077 611.959564,689.155643 609.126673,686.3804 L607.741704,685.003372 L607.384969,686.020255 C606.629531,688.287055 607.112172,690.680967 608.686001,692.291031 C609.525376,693.180803 609.336516,693.307913 607.888594,692.778287 C607.384969,692.608807 606.944297,692.481696 606.902328,692.545251 C606.755438,692.693547 607.259063,694.621387 607.657766,695.384049 C608.20336,696.443301 609.315532,697.481369 610.532626,698.095736 L611.560861,698.582992 L610.343767,698.604177 C609.168641,698.604177 609.126673,698.625362 609.252579,699.070248 C609.672266,700.447277 611.330032,701.909046 613.176658,702.544597 L614.477689,702.989483 L613.344533,703.667405 C611.665783,704.641918 609.693251,705.192729 607.720719,705.235099 C606.776422,705.256284 606,705.341024 606,705.40458 C606,705.61643 608.560094,706.802793 610.049985,707.268864 C614.519658,708.645893 619.828706,708.052711 623.815739,705.70117 C626.64863,704.027551 629.481521,700.701497 630.803537,697.481369 C631.517006,695.76538 632.230475,692.629992 632.230475,691.125853 C632.230475,690.15134 632.293428,690.02423 633.468553,688.859052 C634.161038,688.18113 634.811554,687.439653 634.93746,687.227803 C635.115827,686.885664 635.127421,686.834343 634.469647,687.04782 L634.20888,687.134117 C634.160513,687.150318 634.109626,687.167425 634.056116,687.185433 C632.272444,687.820984 632.020631,687.736244 632.901975,686.782916 C633.552491,686.104995 634.328913,684.876262 634.328913,684.516116 C634.328913,684.45256 634.014147,684.558486 633.657413,684.749151 C633.279694,684.961002 632.440319,685.278778 631.810787,685.469443 L630.677631,685.829589 L629.649396,685.130482 C629.082818,684.749151 628.285411,684.32545 627.865724,684.19834 C626.79552,683.901749 625.158739,683.944119 624.193457,684.28308 Z"
                  id="icon-twitter"></path>
        </g>
    </g>
</svg>
