<svg width="32" height="32" viewBox="0 0 32 32" fill="none" xmlns="http://www.w3.org/2000/svg">
<path d="M16 32C24.8366 32 32 24.8366 32 16C32 7.16344 24.8366 0 16 0C7.16344 0 0 7.16344 0 16C0 24.8366 7.16344 32 16 32Z" fill="white"/>
<path d="M16.0548 29.096C23.1664 29.096 28.9315 23.2458 28.9315 16.0293C28.9315 8.81279 23.1664 2.96265 16.0548 2.96265C8.9432 2.96265 3.1781 8.81279 3.1781 16.0293C3.1781 23.2458 8.9432 29.096 16.0548 29.096Z" fill="#6088C0"/>
<path opacity="0.36" d="M16.1242 28.2375C22.7073 28.2375 28.0439 22.8208 28.0439 16.1389C28.0439 9.45702 22.7073 4.04028 16.1242 4.04028C9.54119 4.04028 4.20459 9.45702 4.20459 16.1389C4.20459 22.8208 9.54119 28.2375 16.1242 28.2375Z" fill="url(#paint0_linear)" stroke="url(#paint1_linear)" stroke-miterlimit="10"/>
<path d="M10.6849 16.6759C9.29682 16.5298 7.50687 15.7627 7.25116 14.6668C8.60276 13.9362 12.548 10.1006 15.3607 10.5389C18.1735 10.9773 24.6758 14.0093 25.2238 15.8357C25.7717 17.6622 26.137 25.9179 24.274 27.1599C22.411 28.4019 15.726 30.1188 13.6804 29.644C11.6347 29.1691 5.35162 26.3198 4.29226 23.58C3.23289 20.8403 3.63472 18.2467 4.25573 19.1234C4.87673 20.0001 11.927 26.5389 13.79 25.6622C15.653 24.7855 18.0201 20.3362 17.9909 19.0869C17.9544 17.5526 17.9945 16.4348 16.4201 15.507C14.9955 14.6668 10.8603 14.3599 10.3197 15.7627C10.137 16.2376 10.7215 16.6394 10.6849 16.6759Z" fill="#293169"/>
<path d="M7.47033 14.3014C7.14156 15.032 7.17809 14.7763 7.39727 15.032C9.36987 13.8996 12.6941 12.9498 17.1142 14.5937C16.6941 13.5672 16.0548 13.1325 15.1416 12.2923C19.3059 12.8037 23.0137 14.6887 24.274 18.5389C25.0046 20.7672 25.5525 23.9088 22.7397 26.8677C24.4566 26.5024 27.5617 20.5115 27.379 19.4887C27.1964 18.4658 24.6393 12.8403 23.6164 12.2193C22.5936 11.5982 23.3607 11.8905 24.3836 11.8905C25.4064 11.8905 26.6119 11.9635 27.8904 12.7672C25.9909 10.8311 20.8402 8.60281 20.1461 8.85852C19.4521 9.11423 19.2694 8.3471 19.0137 8.16446C19.5982 7.68957 20.6977 6.59368 21.169 5.57085C22.0091 3.74436 22.0201 2.44756 22.0822 1.29688C21.4795 3.14162 21.4612 3.0503 20.0731 4.80372C18.6849 6.55715 17.0046 7.28774 16.4201 7.32427C15.8356 7.3608 15.032 7.50692 14.9589 7.87222C14.8493 9.00464 14.0457 9.6987 12.8767 9.84482C13.4247 10.685 9.07763 13.6074 9.00457 13.2786C8.93151 12.9498 7.79909 14.5206 7.65298 14.4476C7.50686 14.3745 7.50686 14.3745 7.50686 14.3745" fill="#19203E"/>
<path d="M3.1598 15.8357C4.94976 21.0594 10.1004 23.3608 13.7169 22.1553C17.5854 20.8658 17.8995 18.6667 17.8082 17.7717C17.7205 16.9096 17.4794 16.4201 16.8219 15.7261C17.9726 16.6466 18.3562 17.885 18.3927 18.2466C18.4657 18.9407 18.3196 19.8905 18.1004 20.3653C19.0502 19.7809 19.1233 19.7443 19.1233 19.7443C19.1233 19.7443 19.0502 20.3288 18.831 20.9133C19.5616 20.5115 19.8539 20.2923 20.1461 20C20.7306 22.1553 19.379 24.4567 17.0046 25.9179C14.6301 27.379 12.5479 27.5252 10.831 27.1599C8.48218 26.6594 5.15798 24.3252 4.47487 22.5206C3.75158 20.6028 3.05021 17.8083 3.1598 15.8357Z" fill="#19203E"/>
<path d="M28.4383 19.1963C27.9634 12.8766 23.5068 10.7214 20.1096 10.1004C22.0822 10.1004 23.9817 10.9406 24.895 11.3789C24.6392 10.8675 24.6392 11.1232 24.4201 10.6118C25.8447 11.1963 27.4155 12.3287 27.9634 12.7305C24.5662 8.78532 20.8036 8.31044 19.0502 8.05473C18.5753 8.56614 17.516 9.15062 16.2374 9.66204C16.9315 9.15062 17.1141 8.42003 17.2603 7.90861C20.0913 6.75793 20.9132 4.91318 20.9132 4.91318C20.9132 4.91318 20.9132 4.91318 20 5.16888C20.7306 4.43829 21.8082 2.63007 22.1004 1.24194C21.4064 3.17802 19.1963 5.35153 17.3698 6.48395C17.4064 6.08213 17.2237 5.42459 16.8219 4.94971C16.0913 6.59354 13.3881 7.50678 12.7306 7.72596C12.073 7.94514 11.6712 8.3835 11.4886 8.93144C11.3863 9.24194 11.5251 10.283 12.4383 10.3561C12.4383 10.3561 12 10.6849 11.3059 10.1735C10.9041 10.7579 9.99085 11.525 9.15066 11.5616C8.6429 11.5835 8.49313 10.904 8.71231 10.2465C7.03194 11.3059 5.93605 13.4611 6.81276 15.6164C7.21459 15.0684 8.16436 14.3744 9.77167 13.7168C11.8575 12.862 14.4657 12.968 17.0959 13.662C16.7306 13.0045 16.1096 12.347 14.9406 11.7625C22.9041 11.6894 24.9607 17.2091 25.2968 19.7442C25.5525 21.6803 25.6803 27.4337 18.1552 28.5661C10.4 29.7351 3.37897 24.3104 3.15979 16.0547C3.03194 14.2465 2.7945 20.7671 3.01368 22.0091C4.28126 29.1981 12.8767 30.6666 17.589 30.484C22.3013 30.3013 28.9132 25.4977 28.4383 19.1963ZM8.78537 12.8401C8.63925 12.5479 8.4566 12.5479 8.20089 12.694C7.94518 12.8401 7.65295 13.1689 7.65295 13.1689C7.83559 12.2922 8.4566 11.8538 8.67578 11.9634C8.89495 12.073 9.00454 12.3652 8.78537 12.8401ZM14.5753 9.46112C13.3333 9.93601 12.8767 9.80815 12.8767 9.80815C12.8767 8.78532 13.8995 8.71226 14.3013 8.52962C14.7032 8.34697 15.8356 8.0182 16.0182 7.57984C15.6529 8.67573 15.2657 9.19811 14.5753 9.46112Z" fill="white"/>
<defs>
<linearGradient id="paint0_linear" x1="10.2519" y1="6.64993" x2="22.8692" y2="27.0416" gradientUnits="userSpaceOnUse">
<stop stop-color="white"/>
<stop offset="0.2597" stop-color="white" stop-opacity="0"/>
</linearGradient>
<linearGradient id="paint1_linear" x1="7.61777" y1="24.6431" x2="24.6277" y2="7.63317" gradientUnits="userSpaceOnUse">
<stop stop-color="white"/>
<stop offset="1" stop-color="white" stop-opacity="0"/>
</linearGradient>
</defs>
</svg>
