<svg width="46" height="46" viewBox="0 0 46 46" fill="none" xmlns="http://www.w3.org/2000/svg">
<circle cx="30" cy="16" r="16" fill="white"/>
<path d="M29.9945 4.43994L29.839 4.96817V20.2948L29.9945 20.4499L37.1088 16.2446L29.9945 4.43994Z" fill="#343434"/>
<path d="M29.9945 4.43994L22.88 16.2446L29.9945 20.4499V13.0108V4.43994Z" fill="#8C8C8C"/>
<path d="M29.9945 21.7969L29.9069 21.9038V27.3633L29.9945 27.6192L37.1132 17.5938L29.9945 21.7969Z" fill="#3C3C3B"/>
<path d="M29.9945 27.6192V21.7969L22.88 17.5938L29.9945 27.6192Z" fill="#8C8C8C"/>
<path d="M29.9945 20.4501L37.1088 16.2448L29.9945 13.011V20.4501Z" fill="#141414"/>
<path d="M22.88 16.2448L29.9945 20.4501V13.011L22.88 16.2448Z" fill="#393939"/>
<path d="M31.5212 32.8727C29.3841 41.4452 20.7015 46.6622 12.128 44.5245C3.55812 42.3874 -1.65893 33.7043 0.47917 25.1325C2.61539 16.5591 11.2979 11.3417 19.8688 13.4788C28.4416 15.616 33.6584 24.3 31.521 32.8729L31.5211 32.8727H31.5212Z" fill="#F7931A"/>
<path fill-rule="evenodd" clip-rule="evenodd" d="M23.0561 26.7219C23.3746 24.5924 21.7534 23.4477 19.5364 22.6841L20.2556 19.7995L18.4997 19.3619L17.7996 22.1706C17.3379 22.0554 16.8639 21.947 16.3927 21.8394L17.0979 19.0122L15.3431 18.5747L14.6235 21.4584C14.2415 21.3714 13.8663 21.2854 13.5023 21.1948L13.5043 21.1858L11.0828 20.5811L10.6157 22.4565C10.6157 22.4565 11.9185 22.7552 11.891 22.7735C12.6021 22.951 12.7307 23.4217 12.7093 23.7948L11.8901 27.081C11.9391 27.0935 12.0026 27.1114 12.0726 27.1396L12.0216 27.1269C11.9783 27.116 11.9333 27.1048 11.887 27.0937L10.7388 31.6972C10.6519 31.9132 10.4313 32.2374 9.93416 32.1143C9.95176 32.1398 8.65792 31.7958 8.65792 31.7958L7.78613 33.8058L10.0712 34.3755C10.3214 34.4382 10.5686 34.5027 10.8133 34.5665L10.8135 34.5665L10.8139 34.5666C10.9848 34.6111 11.1545 34.6554 11.3231 34.6985L10.5965 37.6162L12.3504 38.0537L13.07 35.167C13.5491 35.2971 14.0141 35.4171 14.4693 35.5302L13.7522 38.4032L15.5082 38.8408L16.2347 35.9286C19.229 36.4953 21.4804 36.2668 22.4281 33.5585C23.1917 31.378 22.39 30.1203 20.8148 29.3001C21.9621 29.0355 22.8263 28.2809 23.0567 26.7221L23.0562 26.7217L23.0561 26.7219ZM19.0442 32.3479C18.5464 34.3484 15.415 33.5213 13.9823 33.1429C13.8534 33.1089 13.7383 33.0785 13.64 33.0541L14.6043 29.1887C14.724 29.2186 14.8703 29.2514 15.036 29.2886C16.518 29.6212 19.5543 30.3026 19.0443 32.3479H19.0442ZM15.3332 27.4944C16.5277 27.8132 19.1334 28.5086 19.5872 26.6904H19.5874C20.0508 24.8308 17.5184 24.2701 16.2817 23.9963C16.1425 23.9655 16.0198 23.9383 15.9195 23.9134L15.0453 27.419C15.1279 27.4396 15.2247 27.4655 15.3332 27.4944Z" fill="white"/>
<g clip-path="url(#clip0)">
<path d="M15.9971 45C12.8328 44.9994 9.73979 44.0606 7.10906 42.3023C4.47832 40.544 2.42801 38.0451 1.21737 35.1216C0.00673514 32.1981 -0.309871 28.9813 0.307586 25.8778C0.925042 22.7744 2.44883 19.9238 4.6863 17.6863C6.92376 15.4488 9.77442 13.925 12.8778 13.3076C15.9813 12.6901 19.1981 13.0067 22.1216 14.2174C25.0451 15.428 27.544 17.4783 29.3023 20.1091C31.0606 22.7398 31.9994 25.8328 32 28.9971C32.0004 31.0987 31.5867 33.1799 30.7826 35.1216C29.9786 37.0633 28.7998 38.8276 27.3137 40.3137C25.8276 41.7998 24.0633 42.9786 22.1216 43.7826C20.1799 44.5867 18.0987 45.0004 15.9971 45Z" fill="#262335"/>
<path d="M26.0926 19.7158L25.214 20.5945C27.3106 22.8872 28.4732 25.8816 28.4732 28.9884C28.4732 32.0952 27.3106 35.0895 25.214 37.3823L26.0926 38.2609C28.4242 35.7319 29.7187 32.418 29.7187 28.9781C29.7187 25.5383 28.4242 22.2244 26.0926 19.6953V19.7158Z" fill="#FBFBFB"/>
<path d="M7.61484 19.7918C9.90759 17.6953 12.9019 16.5326 16.0088 16.5326C19.1156 16.5326 22.1099 17.6953 24.4027 19.7918L25.2813 18.9132C22.7523 16.5816 19.4384 15.2871 15.9985 15.2871C12.5587 15.2871 9.24477 16.5816 6.7157 18.9132L7.61484 19.7918Z" fill="#FBFBFB"/>
<path d="M6.79185 37.3911C4.69776 35.0989 3.53663 32.1063 3.53663 29.0016C3.53663 25.8968 4.69776 22.9043 6.79185 20.612L5.91321 19.7334C3.5816 22.2625 2.28711 25.5764 2.28711 29.0162C2.28711 32.4561 3.5816 35.77 5.91321 38.299L6.79185 37.3911Z" fill="#FBFBFB"/>
<path d="M24.391 38.2021C22.0983 40.2987 19.1039 41.4614 15.9971 41.4614C12.8903 41.4614 9.89594 40.2987 7.60319 38.2021L6.72455 39.0808C9.25362 41.4124 12.5675 42.7069 16.0074 42.7069C19.4472 42.7069 22.7611 41.4124 25.2902 39.0808L24.391 38.2021Z" fill="#FBFBFB"/>
<path d="M21.5471 26.0682C21.3714 24.2348 19.7898 23.6198 17.7895 23.4323V20.9077H16.2431V23.3855C15.836 23.3855 15.4201 23.3855 15.0071 23.3855V20.9077H13.4724V23.4499H10.3357V25.1047C10.3357 25.1047 11.4779 25.0842 11.4604 25.1047C11.6663 25.082 11.873 25.1402 12.0369 25.2669C12.2008 25.3937 12.3091 25.5791 12.339 25.7842V32.743C12.3346 32.8153 12.3157 32.886 12.2835 32.9509C12.2513 33.0158 12.2065 33.0735 12.1515 33.1208C12.0977 33.1689 12.0346 33.2057 11.9662 33.2288C11.8977 33.252 11.8253 33.2611 11.7532 33.2555C11.7737 33.2731 10.6286 33.2555 10.6286 33.2555L10.3357 35.1036H13.4431V37.6868H14.9895V35.1417H16.2255V37.6751H17.7748V35.1212C20.3873 34.963 22.209 34.3187 22.4375 31.8731C22.622 29.905 21.6965 29.0263 20.2174 28.6719C21.1166 28.2297 21.6731 27.4096 21.5471 26.0682ZM19.3798 31.5685C19.3798 33.4898 16.0878 33.2702 15.0393 33.2702V29.861C16.0878 29.864 19.3798 29.5623 19.3798 31.5685ZM18.6623 26.7653C18.6623 28.5226 15.915 28.3088 15.0423 28.3088V25.2101C15.915 25.2101 18.6623 24.9348 18.6623 26.7653Z" fill="white"/>
<path d="M15.9971 45C12.8328 44.9994 9.73979 44.0606 7.10906 42.3023C4.47832 40.544 2.42801 38.0451 1.21737 35.1216C0.00673518 32.1981 -0.309871 28.9813 0.307586 25.8778C0.925043 22.7744 2.44883 19.9238 4.6863 17.6863C6.92376 15.4488 9.77442 13.925 12.8778 13.3076C15.9813 12.6901 19.1981 13.0067 22.1216 14.2174C25.0451 15.428 27.544 17.4783 29.3023 20.1091C31.0606 22.7398 31.9994 25.8328 32 28.9971C32.0004 31.0987 31.5867 33.1799 30.7826 35.1216C29.9786 37.0633 28.7998 38.8276 27.3137 40.3137C25.8276 41.7998 24.0633 42.9786 22.1216 43.7826C20.1799 44.5867 18.0987 45.0004 15.9971 45V45ZM15.9971 14.2477C13.0818 14.25 10.2327 15.1165 7.80981 16.7377C5.38691 18.3589 3.49901 20.662 2.38473 23.3559C1.27045 26.0498 0.97981 29.0135 1.54954 31.8726C2.11927 34.7316 3.5238 37.3576 5.5856 39.4185C7.6474 41.4795 10.2739 42.883 13.1332 43.4516C15.9924 44.0202 18.9561 43.7284 21.6495 42.613C24.343 41.4977 26.6453 39.6089 28.2656 37.1853C29.8858 34.7618 30.7512 31.9123 30.7523 28.9971C30.7531 27.0594 30.3719 25.1407 29.6306 23.3505C28.8893 21.5603 27.8024 19.9337 26.432 18.5639C25.0616 17.194 23.4346 16.1078 21.6441 15.3672C19.8536 14.6265 17.9347 14.2461 15.9971 14.2477V14.2477Z" fill="white"/>
</g>
<defs>
<clipPath id="clip0">
<rect width="32" height="32" fill="white" transform="translate(0 13)"/>
</clipPath>
</defs>
</svg>
