<svg width="46" height="46" viewBox="0 0 46 46" fill="none" xmlns="http://www.w3.org/2000/svg">
<g clip-path="url(#clip0)">
<path d="M30 32C38.9 32 46 24.9 46 16C46 7.1 38.9 0 30 0C21.1 0 14 7.1 14 16C14 24.9 21.1 32 30 32Z" fill="#2775CA"/>
<path d="M34.4 18.5C34.4 16.2 33 15.4 30.2 15C28.2 14.7 27.8 14.2 27.8 13.3C27.8 12.4 28.5 11.8 29.8 11.8C31 11.8 31.7 12.2 32 13.2C32.1 13.4 32.3 13.5 32.5 13.5H33.6C33.9 13.5 34.1 13.3 34.1 13V13C33.8 11.5 32.6 10.4 31.1 10.3V8.7C31.1 8.4 30.9 8.2 30.6 8.2H29.6C29.3 8.2 29.1 8.4 29.1 8.7V10.2C27.1 10.5 25.8 11.8 25.8 13.5C25.8 15.7 27.1 16.6 29.9 16.9C31.8 17.2 32.4 17.6 32.4 18.7C32.4 19.8 31.5 20.5 30.2 20.5C28.5 20.5 27.9 19.8 27.7 18.8C27.6 18.5 27.4 18.4 27.2 18.4H26.1C25.8 18.4 25.6 18.6 25.6 18.9V19C25.9 20.7 26.9 21.9 29.1 22.2V23.8C29.1 24.1 29.3 24.3 29.6 24.3H30.6C30.9 24.3 31.1 24.1 31.1 23.8V22.2C33.1 21.7 34.4 20.3 34.4 18.5Z" fill="white"/>
<path fill-rule="evenodd" clip-rule="evenodd" d="M20.7 12.7C18.8 17.8 21.4 23.6 26.6 25.5C26.8 25.6 27 25.9 27 26.1V27C27 27.1 27 27.2 26.9 27.3C26.8 27.6 26.6 27.7 26.3 27.6C22.6 26.4 19.7 23.5 18.5 19.8C16.5 13.5 20 6.70001 26.3 4.70001C26.4 4.60001 26.5 4.60001 26.6 4.60001C26.9 4.70001 27 4.90001 27 5.20001V6.10001C27 6.40001 26.9 6.60001 26.6 6.80001C23.9 7.80001 21.7 9.90001 20.7 12.7ZM33.1 5.00001C33.2 4.70001 33.4 4.60001 33.7 4.70001C37.4 5.90001 40.3 8.80001 41.5 12.6C43.5 18.9 40 25.7 33.7 27.7C33.6 27.8 33.5 27.8 33.4 27.8C33.1 27.7 33 27.5 33 27.3V26.4C33 26.1 33.1 25.9 33.4 25.7C36.1 24.7 38.3 22.6 39.3 19.8C41.2 14.7 38.6 8.90001 33.4 7.00001C33.2 6.70001 33 6.50001 33 6.20001V5.30001C33 5.10001 33 5.10001 33.1 5.00001Z" fill="white"/>
</g>
<path d="M31.5211 32.8728C29.384 41.4453 20.7015 46.6623 12.128 44.5246C3.55806 42.3875 -1.65899 33.7044 0.479109 25.1326C2.61533 16.5592 11.2979 11.3418 19.8687 13.4789C28.4416 15.6161 33.6583 24.3001 31.5209 32.873L31.5211 32.8728H31.5211Z" fill="#F7931A"/>
<path fill-rule="evenodd" clip-rule="evenodd" d="M23.0561 26.7219C23.3746 24.5925 21.7533 23.4478 19.5364 22.6842L20.2556 19.7996L18.4996 19.362L17.7995 22.1707C17.3379 22.0555 16.8638 21.9471 16.3927 21.8395L17.0978 19.0123L15.343 18.5748L14.6234 21.4584C14.2414 21.3715 13.8662 21.2855 13.5022 21.1949L13.5042 21.1859L11.0828 20.5812L10.6157 22.4566C10.6157 22.4566 11.9184 22.7553 11.891 22.7736C12.602 22.9511 12.7306 23.4218 12.7093 23.7949L11.89 27.0811C11.939 27.0935 12.0025 27.1115 12.0726 27.1397L12.0215 27.1269C11.9782 27.1161 11.9332 27.1048 11.887 27.0938L10.7387 31.6973C10.6518 31.9133 10.4312 32.2375 9.9341 32.1144C9.9517 32.1399 8.65786 31.7959 8.65786 31.7959L7.78607 33.8059L10.0711 34.3756C10.3213 34.4383 10.5686 34.5027 10.8133 34.5665L10.8135 34.5666L10.8138 34.5667C10.9847 34.6112 11.1544 34.6555 11.323 34.6986L10.5964 37.6163L12.3503 38.0538L13.0699 35.1671C13.5491 35.2972 14.014 35.4171 14.4693 35.5302L13.7521 38.4033L15.5081 38.8409L16.2347 35.9287C19.2289 36.4953 21.4803 36.2669 22.428 33.5586C23.1916 31.3781 22.39 30.1204 20.8147 29.3002C21.9621 29.0356 22.8263 28.281 23.0567 26.7222L23.0561 26.7218L23.0561 26.7219ZM19.0442 32.348C18.5463 34.3485 15.4149 33.5214 13.9822 33.143L13.9821 33.143C13.8532 33.109 13.7382 33.0786 13.64 33.0542L14.6042 29.1888C14.7239 29.2187 14.8702 29.2515 15.036 29.2887C16.518 29.6213 19.5543 30.3027 19.0443 32.348H19.0442ZM15.3332 27.4945C16.5276 27.8133 19.1334 28.5087 19.5872 26.6905H19.5873C20.0507 24.8309 17.5184 24.2702 16.2816 23.9964C16.1425 23.9656 16.0197 23.9384 15.9195 23.9134L15.0453 27.4191C15.1278 27.4397 15.2247 27.4656 15.3332 27.4945Z" fill="white"/>
<g clip-path="url(#clip1)">
<path d="M15.997 45C12.8328 44.9994 9.73976 44.0606 7.10903 42.3023C4.47829 40.544 2.42798 38.0451 1.21734 35.1216C0.00670462 32.1981 -0.309902 28.9813 0.307555 25.8778C0.925012 22.7744 2.4488 19.9238 4.68627 17.6863C6.92373 15.4488 9.77439 13.925 12.8778 13.3076C15.9812 12.6901 19.1981 13.0067 22.1216 14.2174C25.0451 15.428 27.5439 17.4783 29.3023 20.1091C31.0606 22.7398 31.9994 25.8328 32 28.9971C32.0004 31.0987 31.5867 33.1799 30.7826 35.1216C29.9785 37.0633 28.7998 38.8276 27.3137 40.3137C25.8276 41.7998 24.0633 42.9786 22.1216 43.7826C20.1798 44.5867 18.0987 45.0004 15.997 45Z" fill="#262335"/>
<path d="M26.0926 19.7157L25.214 20.5943C27.3105 22.8871 28.4732 25.8814 28.4732 28.9883C28.4732 32.0951 27.3105 35.0894 25.214 37.3822L26.0926 38.2608C28.4242 35.7318 29.7187 32.4179 29.7187 28.978C29.7187 25.5382 28.4242 22.2243 26.0926 19.6952V19.7157Z" fill="#FBFBFB"/>
<path d="M7.61484 19.7918C9.90759 17.6953 12.9019 16.5326 16.0088 16.5326C19.1156 16.5326 22.1099 17.6953 24.4027 19.7918L25.2813 18.9132C22.7523 16.5816 19.4384 15.2871 15.9985 15.2871C12.5587 15.2871 9.24477 16.5816 6.7157 18.9132L7.61484 19.7918Z" fill="#FBFBFB"/>
<path d="M6.79182 37.391C4.69773 35.0987 3.5366 32.1062 3.5366 29.0015C3.5366 25.8967 4.69773 22.9042 6.79182 20.6119L5.91318 19.7333C3.58157 22.2624 2.28708 25.5762 2.28708 29.0161C2.28708 32.456 3.58157 35.7698 5.91318 38.2989L6.79182 37.391Z" fill="#FBFBFB"/>
<path d="M24.391 38.2022C22.0982 40.2988 19.1039 41.4615 15.997 41.4615C12.8902 41.4615 9.89588 40.2988 7.60313 38.2022L6.72449 39.0809C9.25356 41.4125 12.5674 42.707 16.0073 42.707C19.4472 42.707 22.761 41.4125 25.2901 39.0809L24.391 38.2022Z" fill="#FBFBFB"/>
<path d="M21.5471 26.0682C21.3714 24.2348 19.7898 23.6198 17.7894 23.4323V20.9077H16.243V23.3855C15.8359 23.3855 15.42 23.3855 15.0071 23.3855V20.9077H13.4724V23.4499H10.3357V25.1047C10.3357 25.1047 11.4779 25.0842 11.4603 25.1047C11.6663 25.082 11.873 25.1402 12.0369 25.2669C12.2008 25.3937 12.3091 25.5791 12.339 25.7841V32.743C12.3346 32.8153 12.3157 32.886 12.2835 32.9508C12.2513 33.0157 12.2064 33.0735 12.1515 33.1208C12.0976 33.1689 12.0346 33.2057 11.9661 33.2288C11.8977 33.252 11.8252 33.261 11.7532 33.2555C11.7737 33.2731 10.6285 33.2555 10.6285 33.2555L10.3357 35.1036H13.4431V37.6868H14.9895V35.1416H16.2255V37.675H17.7748V35.1211C20.3873 34.963 22.209 34.3186 22.4374 31.8731C22.622 29.905 21.6965 29.0263 20.2174 28.6719C21.1166 28.2297 21.673 27.4096 21.5471 26.0682ZM19.3798 31.5685C19.3798 33.4898 16.0878 33.2701 15.0393 33.2701V29.861C16.0878 29.864 19.3798 29.5623 19.3798 31.5685ZM18.6622 26.7653C18.6622 28.5226 15.915 28.3088 15.0422 28.3088V25.2101C15.915 25.2101 18.6622 24.9348 18.6622 26.7653Z" fill="white"/>
<path d="M15.997 45C12.8328 44.9994 9.73973 44.0606 7.109 42.3023C4.47826 40.5439 2.42795 38.0451 1.21731 35.1216C0.00667414 32.1981 -0.309932 28.9812 0.307525 25.8778C0.924981 22.7744 2.44877 19.9237 4.68624 17.6863C6.9237 15.4488 9.77436 13.925 12.8778 13.3076C15.9812 12.6901 19.198 13.0067 22.1215 14.2173C25.045 15.428 27.5439 17.4783 29.3022 20.109C31.0606 22.7398 31.9994 25.8328 31.9999 28.997C32.0003 31.0987 31.5867 33.1798 30.7826 35.1216C29.9785 37.0633 28.7997 38.8276 27.3137 40.3137C25.8276 41.7998 24.0633 42.9785 22.1215 43.7826C20.1798 44.5867 18.0987 45.0004 15.997 45V45ZM15.997 14.2476C13.0818 14.25 10.2326 15.1165 7.80974 16.7377C5.38685 18.3589 3.49895 20.6619 2.38467 23.3558C1.27039 26.0497 0.979749 29.0135 1.54948 31.8725C2.11921 34.7316 3.52374 37.3575 5.58554 39.4185C7.64734 41.4795 10.2739 42.883 13.1331 43.4516C15.9924 44.0202 18.956 43.7284 21.6495 42.613C24.3429 41.4977 26.6453 39.6088 28.2655 37.1853C29.8857 34.7618 30.7511 31.9123 30.7523 28.997C30.7531 27.0594 30.3719 25.1406 29.6306 23.3504C28.8892 21.5602 27.8023 19.9337 26.4319 18.5639C25.0615 17.194 23.4346 16.1077 21.6441 15.3671C19.8536 14.6265 17.9346 14.2461 15.997 14.2476V14.2476Z" fill="white"/>
</g>
<defs>
<clipPath id="clip0">
<rect width="32" height="32" fill="white" transform="translate(14)"/>
</clipPath>
<clipPath id="clip1">
<rect width="32" height="32" fill="white" transform="translate(-3.05176e-05 13)"/>
</clipPath>
</defs>
</svg>
