<svg width="47" height="45" viewBox="0 0 47 45" fill="none" xmlns="http://www.w3.org/2000/svg">
<path d="M31 32C39.8366 32 47 24.8366 47 16C47 7.16344 39.8366 0 31 0C22.1634 0 15 7.16344 15 16C15 24.8366 22.1634 32 31 32Z" fill="white"/>
<path d="M31.0548 29.0959C38.1664 29.0959 43.9315 23.2457 43.9315 16.0292C43.9315 8.8127 38.1664 2.96255 31.0548 2.96255C23.9432 2.96255 18.1781 8.8127 18.1781 16.0292C18.1781 23.2457 23.9432 29.0959 31.0548 29.0959Z" fill="#6088C0"/>
<path opacity="0.36" d="M31.1242 28.2374C37.7072 28.2374 43.0438 22.8207 43.0438 16.1388C43.0438 9.45692 37.7072 4.04018 31.1242 4.04018C24.5412 4.04018 19.2046 9.45692 19.2046 16.1388C19.2046 22.8207 24.5412 28.2374 31.1242 28.2374Z" fill="url(#paint0_linear)" stroke="url(#paint1_linear)" stroke-miterlimit="10"/>
<path d="M25.6849 16.6758C24.2968 16.5297 22.5069 15.7626 22.2512 14.6667C23.6028 13.9361 27.548 10.1005 30.3607 10.5388C33.1735 10.9772 39.6758 14.0091 40.2238 15.8356C40.7717 17.6621 41.137 25.9178 39.274 27.1598C37.411 28.4018 30.726 30.1187 28.6804 29.6439C26.6347 29.169 20.3516 26.3196 19.2923 23.5799C18.2329 20.8402 18.6347 18.2466 19.2557 19.1233C19.8767 20 26.927 26.5388 28.79 25.6621C30.653 24.7854 33.0201 20.3361 32.9909 19.0868C32.9544 17.5525 32.9945 16.4347 31.4201 15.5069C29.9955 14.6667 25.8603 14.3598 25.3197 15.7626C25.137 16.2375 25.7215 16.6393 25.6849 16.6758Z" fill="#293169"/>
<path d="M22.4703 14.3014C22.1416 15.032 22.1781 14.7763 22.3973 15.032C24.3699 13.8996 27.6941 12.9498 32.1142 14.5937C31.6941 13.5672 31.0548 13.1325 30.1416 12.2923C34.3059 12.8037 38.0137 14.6887 39.274 18.5389C40.0046 20.7672 40.5525 23.9088 37.7397 26.8677C39.4566 26.5024 42.5617 20.5115 42.379 19.4887C42.1964 18.4658 39.6393 12.8403 38.6164 12.2193C37.5936 11.5982 38.3607 11.8905 39.3836 11.8905C40.4064 11.8905 41.6119 11.9635 42.8904 12.7672C40.9909 10.8311 35.8402 8.60281 35.1461 8.85852C34.4521 9.11423 34.2694 8.3471 34.0137 8.16446C34.5982 7.68957 35.6977 6.59368 36.169 5.57085C37.0091 3.74436 37.0201 2.44756 37.0822 1.29688C36.4795 3.14162 36.4612 3.0503 35.0731 4.80372C33.6849 6.55715 32.0046 7.28774 31.4201 7.32427C30.8356 7.3608 30.032 7.50692 29.9589 7.87222C29.8493 9.00464 29.0457 9.6987 27.8767 9.84482C28.4247 10.685 24.0776 13.6074 24.0046 13.2786C23.9315 12.9498 22.7991 14.5206 22.653 14.4476C22.5069 14.3745 22.5069 14.3745 22.5069 14.3745" fill="#19203E"/>
<path d="M18.1598 15.8356C19.9498 21.0593 25.1004 23.3607 28.7169 22.1552C32.5854 20.8657 32.8995 18.6667 32.8082 17.7717C32.7205 16.9096 32.4794 16.4201 31.8219 15.726C32.9726 16.6466 33.3562 17.8849 33.3927 18.2466C33.4657 18.9406 33.3196 19.8904 33.1004 20.3653C34.0502 19.7808 34.1233 19.7443 34.1233 19.7443C34.1233 19.7443 34.0502 20.3288 33.831 20.9132C34.5616 20.5114 34.8539 20.2922 35.1461 20C35.7306 22.1552 34.379 24.4566 32.0046 25.9178C29.6301 27.379 27.5479 27.5251 25.831 27.1598C23.4822 26.6594 20.158 24.3251 19.4749 22.5205C18.7516 20.6027 18.0502 17.8082 18.1598 15.8356Z" fill="#19203E"/>
<path d="M43.4384 19.1963C42.9635 12.8766 38.5069 10.7214 35.1096 10.1004C37.0822 10.1004 38.9817 10.9406 39.895 11.3789C39.6393 10.8675 39.6393 11.1232 39.4201 10.6118C40.8448 11.1963 42.4155 12.3287 42.9635 12.7305C39.5662 8.78532 35.8037 8.31044 34.0502 8.05473C33.5754 8.56614 32.516 9.15062 31.2375 9.66204C31.9315 9.15062 32.1142 8.42003 32.2603 7.90861C35.0913 6.75793 35.9133 4.91318 35.9133 4.91318C35.9133 4.91318 35.9133 4.91318 35 5.16888C35.7306 4.43829 36.8082 2.63007 37.1005 1.24194C36.4064 3.17802 34.1964 5.35153 32.3699 6.48395C32.4064 6.08213 32.2238 5.42459 31.8219 4.94971C31.0913 6.59354 28.3881 7.50678 27.7306 7.72596C27.0731 7.94514 26.6712 8.3835 26.4886 8.93144C26.3863 9.24194 26.5251 10.283 27.4384 10.3561C27.4384 10.3561 27 10.6849 26.3059 10.1735C25.9041 10.7579 24.9909 11.525 24.1507 11.5616C23.6429 11.5835 23.4932 10.904 23.7123 10.2465C22.032 11.3059 20.9361 13.4611 21.8128 15.6164C22.2146 15.0684 23.1644 14.3744 24.7717 13.7168C26.8575 12.862 29.4658 12.968 32.0959 13.662C31.7306 13.0045 31.1096 12.347 29.9406 11.7625C37.9041 11.6894 39.9607 17.2091 40.2968 19.7442C40.5525 21.6803 40.6804 27.4337 33.1553 28.5661C25.4 29.7351 18.379 24.3104 18.1598 16.0547C18.032 14.2465 17.7945 20.7671 18.0137 22.0091C19.2813 29.1981 27.8767 30.6666 32.589 30.484C37.3014 30.3013 43.9133 25.4977 43.4384 19.1963ZM23.7854 12.8401C23.6393 12.5479 23.4566 12.5479 23.2009 12.694C22.9452 12.8401 22.653 13.1689 22.653 13.1689C22.8356 12.2922 23.4566 11.8538 23.6758 11.9634C23.895 12.073 24.0046 12.3652 23.7854 12.8401ZM29.5754 9.46112C28.3333 9.93601 27.8767 9.80815 27.8767 9.80815C27.8767 8.78532 28.8996 8.71226 29.3014 8.52962C29.7032 8.34697 30.8356 8.0182 31.0183 7.57984C30.653 8.67573 30.2658 9.19811 29.5754 9.46112Z" fill="white"/>
<g clip-path="url(#clip0)" filter="url(#filter0_d)">
<circle cx="17" cy="28.989" r="16" fill="#EDE7F9"/>
<path fill-rule="evenodd" clip-rule="evenodd" d="M14.8242 26.2196C15.5286 26.1331 16.2482 26.0899 16.983 26.0899C17.735 26.0899 18.471 26.1352 19.1912 26.2257C19.18 25.7966 19.1744 25.3559 19.1744 24.9034V20.353H22.3329V24.9034C22.3329 25.6094 22.3196 26.2843 22.2929 26.9282C22.4957 26.996 22.6971 27.0679 22.8971 27.1439C24.745 27.8466 26.3946 28.8034 27.846 30.0144L26.5891 31.9206C25.2574 30.9339 23.7836 30.1639 22.1676 29.6108C22.1439 29.6026 22.1201 29.5945 22.0962 29.5865C22.0162 30.3944 21.9237 31.2064 21.8187 32.0226H19.713C19.5657 30.9925 19.445 29.9657 19.3509 28.9422C18.5834 28.8347 17.7941 28.781 16.983 28.781C16.189 28.781 15.4166 28.8325 14.6658 28.9354C14.5728 29.9578 14.4597 30.9869 14.3264 32.0226H12.2207C12.1037 31.2041 12.0034 30.3877 11.92 29.5733C11.8831 29.5856 11.8463 29.5981 11.8096 29.6108C10.2011 30.1639 8.72354 30.9339 7.37689 31.9206L6.12001 30.0144C7.5714 28.8034 9.22105 27.8466 11.069 27.1439C11.2849 27.0618 11.5026 26.9844 11.722 26.9119C11.6954 26.2701 11.6821 25.6006 11.6821 24.9034V20.353H14.8406V24.9034C14.8406 25.3548 14.8351 25.7936 14.8242 26.2196ZM13.2491 37.6251C13.8041 37.6251 14.2693 37.4456 14.6447 37.0868C15.0201 36.728 15.2079 36.2632 15.2079 35.6924C15.2079 35.1215 15.0201 34.6526 14.6447 34.2856C14.2693 33.9187 13.8041 33.7352 13.2491 33.7352C12.7104 33.7352 12.2493 33.9187 11.8657 34.2856C11.4821 34.6526 11.2903 35.1215 11.2903 35.6924C11.2903 36.2632 11.4821 36.728 11.8657 37.0868C12.2493 37.4456 12.7104 37.6251 13.2491 37.6251ZM20.7414 37.6251C21.2964 37.6251 21.7616 37.4456 22.137 37.0868C22.5124 36.728 22.7002 36.2632 22.7002 35.6924C22.7002 35.1215 22.5124 34.6526 22.137 34.2856C21.7616 33.9187 21.2964 33.7352 20.7414 33.7352C20.2027 33.7352 19.7416 33.9187 19.358 34.2856C18.9744 34.6526 18.7826 35.1215 18.7826 35.6924C18.7826 36.2632 18.9744 36.728 19.358 37.0868C19.7416 37.4456 20.2027 37.6251 20.7414 37.6251Z" fill="#7347DC"/>
</g>
<defs>
<filter id="filter0_d" x="0" y="9" width="36" height="36" filterUnits="userSpaceOnUse" color-interpolation-filters="sRGB">
<feFlood flood-opacity="0" result="BackgroundImageFix"/>
<feColorMatrix in="SourceAlpha" type="matrix" values="0 0 0 0 0 0 0 0 0 0 0 0 0 0 0 0 0 0 127 0"/>
<feOffset dx="1" dy="-2"/>
<feGaussianBlur stdDeviation="1"/>
<feColorMatrix type="matrix" values="0 0 0 0 0 0 0 0 0 0 0 0 0 0 0 0 0 0 0.25 0"/>
<feBlend mode="normal" in2="BackgroundImageFix" result="effect1_dropShadow"/>
<feBlend mode="normal" in="SourceGraphic" in2="effect1_dropShadow" result="shape"/>
</filter>
<linearGradient id="paint0_linear" x1="25.2519" y1="6.64982" x2="37.8692" y2="27.0415" gradientUnits="userSpaceOnUse">
<stop stop-color="white"/>
<stop offset="0.2597" stop-color="white" stop-opacity="0"/>
</linearGradient>
<linearGradient id="paint1_linear" x1="22.6177" y1="24.643" x2="39.6277" y2="7.63306" gradientUnits="userSpaceOnUse">
<stop stop-color="white"/>
<stop offset="1" stop-color="white" stop-opacity="0"/>
</linearGradient>
<clipPath id="clip0">
<rect width="32" height="32" fill="white" transform="translate(1 13)"/>
</clipPath>
</defs>
</svg>
