<svg width="46" height="46" viewBox="0 0 46 46" fill="none" xmlns="http://www.w3.org/2000/svg">
<g clip-path="url(#clip0)">
<circle cx="30" cy="16" r="16" fill="#EDE7F9"/>
<path fill-rule="evenodd" clip-rule="evenodd" d="M27.8242 13.2306C28.5286 13.1441 29.2482 13.1009 29.983 13.1009C30.735 13.1009 31.471 13.1462 32.1912 13.2367C32.1799 12.8076 32.1743 12.3668 32.1743 11.9144V7.36401H35.3329V11.9144C35.3329 12.6204 35.3195 13.2953 35.2929 13.9392C35.4957 14.007 35.6971 14.0789 35.897 14.1549C37.745 14.8576 39.3946 15.8144 40.846 17.0254L39.5891 18.9316C38.2574 17.9449 36.7836 17.1749 35.1676 16.6217C35.1438 16.6136 35.12 16.6055 35.0962 16.5975C35.0162 17.4054 34.9237 18.2174 34.8187 19.0336H32.713C32.5657 18.0035 32.445 16.9767 32.3509 15.9531C31.5834 15.8457 30.7941 15.792 29.983 15.792C29.189 15.792 28.4166 15.8435 27.6658 15.9464C27.5728 16.9688 27.4597 17.9978 27.3264 19.0336H25.2207C25.1037 18.2151 25.0034 17.3986 24.92 16.5843C24.8831 16.5966 24.8463 16.6091 24.8096 16.6217C23.2011 17.1749 21.7235 17.9449 20.3769 18.9316L19.12 17.0254C20.5714 15.8144 22.221 14.8576 24.0689 14.1549C24.2849 14.0728 24.5026 13.9954 24.722 13.9229C24.6953 13.2811 24.682 12.6116 24.682 11.9144V7.36401H27.8406V11.9144C27.8406 12.3658 27.8351 12.8045 27.8242 13.2306ZM26.2491 24.636C26.8041 24.636 27.2693 24.4566 27.6447 24.0978C28.0201 23.739 28.2078 23.2742 28.2078 22.7033C28.2078 22.1325 28.0201 21.6636 27.6447 21.2966C27.2693 20.9297 26.8041 20.7462 26.2491 20.7462C25.7104 20.7462 25.2493 20.9297 24.8657 21.2966C24.4821 21.6636 24.2903 22.1325 24.2903 22.7033C24.2903 23.2742 24.4821 23.739 24.8657 24.0978C25.2493 24.4566 25.7104 24.636 26.2491 24.636ZM33.7414 24.636C34.2964 24.636 34.7616 24.4566 35.137 24.0978C35.5124 23.739 35.7001 23.2742 35.7001 22.7033C35.7001 22.1325 35.5124 21.6636 35.137 21.2966C34.7616 20.9297 34.2964 20.7462 33.7414 20.7462C33.2027 20.7462 32.7416 20.9297 32.358 21.2966C31.9744 21.6636 31.7826 22.1325 31.7826 22.7033C31.7826 23.2742 31.9744 23.739 32.358 24.0978C32.7416 24.4566 33.2027 24.636 33.7414 24.636Z" fill="#7347DC"/>
</g>
<circle cx="16" cy="29.0146" r="16" fill="white"/>
<path d="M15.9945 17.4546L15.839 17.9828V33.3094L15.9945 33.4646L23.1088 29.2592L15.9945 17.4546Z" fill="#343434"/>
<path d="M15.9945 17.4546L8.88 29.2592L15.9945 33.4646V26.0255V17.4546Z" fill="#8C8C8C"/>
<path d="M15.9944 34.8115L15.9068 34.9184V40.378L15.9944 40.6338L23.1131 30.6084L15.9944 34.8115Z" fill="#3C3C3B"/>
<path d="M15.9945 40.6338V34.8115L8.88 30.6084L15.9945 40.6338Z" fill="#8C8C8C"/>
<path d="M15.9944 33.4647L23.1087 29.2594L15.9944 26.0256V33.4647Z" fill="#141414"/>
<path d="M8.88 29.2594L15.9945 33.4647V26.0256L8.88 29.2594Z" fill="#393939"/>
<defs>
<clipPath id="clip0">
<rect width="32" height="32" fill="white" transform="translate(14 0.0109863)"/>
</clipPath>
</defs>
</svg>
