<svg width="140" height="140" viewBox="0 0 140 140" fill="none" xmlns="http://www.w3.org/2000/svg">
<path d="M140 70C140 108.66 108.66 140 70 140C31.3401 140 0 108.66 0 70C0 31.3401 31.3401 0 70 0C108.66 0 140 31.3401 140 70Z" fill="black"/>
<path fill-rule="evenodd" clip-rule="evenodd" d="M70 93.3333C82.8866 93.3333 93.3333 82.8867 93.3333 70C93.3333 57.1134 82.8866 46.6667 70 46.6667C57.1133 46.6667 46.6667 57.1134 46.6667 70C46.6667 82.8867 57.1133 93.3333 70 93.3333ZM70 107.333C90.6186 107.333 107.333 90.6186 107.333 70C107.333 49.3814 90.6186 32.6667 70 32.6667C49.3814 32.6667 32.6667 49.3814 32.6667 70C32.6667 90.6186 49.3814 107.333 70 107.333Z" fill="white"/>
<path fill-rule="evenodd" clip-rule="evenodd" d="M45.8002 55.6997L27.7169 37.6164L37.6164 27.7169L55.6997 45.8002L45.8002 55.6997ZM100.05 109.95L81.9669 91.8664L91.8664 81.9669L109.95 100.05L100.05 109.95Z" fill="white"/>
<path fill-rule="evenodd" clip-rule="evenodd" d="M51.6164 95.9498L37.6164 109.95L27.7169 100.05L41.7169 86.0503L51.6164 95.9498ZM109.95 37.6165L91.2831 56.2831L81.3836 46.3836L100.05 27.717L109.95 37.6165Z" fill="white"/>
</svg>
