<svg width="46" height="45" viewBox="0 0 46 45" fill="none" xmlns="http://www.w3.org/2000/svg">
<path d="M30 0C38.8362 0 46 7.16384 46 16C46 24.8362 38.8358 32 30 32C21.1642 32 14 24.8381 14 16C14 7.16192 21.1629 0 30 0" fill="#23A881"/>
<path fill-rule="evenodd" clip-rule="evenodd" d="M31.9713 11.5151V13.8923L31.9726 13.893C36.3826 14.0965 39.6978 14.971 39.6978 16.0184C39.6978 17.0657 36.3826 17.9402 31.9726 18.1438V25.7591H28.0419V18.1444C23.6255 17.9402 20.302 17.0651 20.302 16.0168C20.302 14.9684 23.6239 14.0933 28.0419 13.8904V11.5151H22.6058V7.89293H37.4069V11.5151H31.9713ZM31.9727 17.4968V17.4988L31.9733 17.4972C35.8675 17.3236 38.7756 16.6428 38.7756 15.8323C38.7756 15.0218 35.8688 14.3413 31.9733 14.1678V16.8222C31.8615 16.8324 31.252 16.8829 30.0399 16.8829C29.0307 16.8829 28.2996 16.8397 28.0439 16.8222V14.1678C24.141 14.341 21.2272 15.0199 21.2272 15.8333C21.2272 16.6467 24.1407 17.3265 28.0439 17.4994V17.4962C28.2954 17.5093 29.009 17.5381 30.0233 17.5381C31.292 17.5381 31.8618 17.5039 31.9727 17.4968Z" fill="white"/>
<circle cx="16" cy="29" r="16" fill="white"/>
<path d="M15.9944 17.44L15.8389 17.9683V33.2949L15.9944 33.45L23.1087 29.2447L15.9944 17.44Z" fill="#343434"/>
<path d="M15.9945 17.44L8.88004 29.2447L15.9945 33.45V26.0109V17.44Z" fill="#8C8C8C"/>
<path d="M15.9944 34.797L15.9068 34.9039V40.3634L15.9944 40.6193L23.1131 30.5938L15.9944 34.797Z" fill="#3C3C3B"/>
<path d="M15.9945 40.6193V34.797L8.88007 30.5938L15.9945 40.6193Z" fill="#8C8C8C"/>
<path d="M15.9945 33.45L23.1088 29.2447L15.9945 26.0109V33.45Z" fill="#141414"/>
<path d="M8.88007 29.2447L15.9945 33.45V26.0109L8.88007 29.2447Z" fill="#393939"/>
</svg>
