<svg width="107" height="107" viewBox="0 0 107 107" fill="none" xmlns="http://www.w3.org/2000/svg">
<circle cx="53.5" cy="53.5" r="53.5" fill="#EDE7F9"/>
<path fill-rule="evenodd" clip-rule="evenodd" d="M46.2247 44.2398C48.5801 43.9507 50.9862 43.8062 53.4431 43.8062C55.9575 43.8062 58.4187 43.9575 60.8267 44.2603C60.7892 42.8255 60.7705 41.3516 60.7705 39.8387V24.6233H71.3318V39.8387C71.3318 42.1994 71.2872 44.4562 71.1982 46.6091C71.8764 46.8359 72.5497 47.0763 73.2183 47.3305C79.3972 49.6801 84.9132 52.8795 89.7663 56.9288L85.5636 63.3027C81.1108 60.0033 76.1826 57.4287 70.7792 55.5791C70.6997 55.5518 70.6201 55.5248 70.5405 55.498C70.273 58.1993 69.9637 60.9144 69.6125 63.6436H62.5716C62.0792 60.1991 61.6756 56.7657 61.3608 53.3434C58.7945 52.9842 56.1553 52.8046 53.4431 52.8046C50.7882 52.8046 48.2055 52.9767 45.6949 53.3209C45.384 56.7394 45.0057 60.1802 44.5601 63.6436H37.5192C37.1279 60.9066 36.7927 58.1767 36.5136 55.4538C36.3904 55.4951 36.2674 55.5368 36.1446 55.5791C30.7662 57.4287 25.8255 60.0033 21.3227 63.3027L17.12 56.9288C21.9731 52.8795 27.4891 49.6801 33.668 47.3305C34.3903 47.0559 35.1181 46.7973 35.8516 46.5548C35.7626 44.4088 35.7181 42.1701 35.7181 39.8387V24.6233H46.2794V39.8387C46.2794 41.3482 46.2612 42.8152 46.2247 44.2398ZM40.9579 82.3766C42.8136 82.3766 44.3692 81.7767 45.6245 80.5769C46.8799 79.3771 47.5075 77.8229 47.5075 75.9141C47.5075 74.0054 46.8799 72.4375 45.6245 71.2104C44.3692 69.9834 42.8136 69.3699 40.9579 69.3699C39.1567 69.3699 37.6148 69.9834 36.3322 71.2104C35.0496 72.4375 34.4083 74.0054 34.4083 75.9141C34.4083 77.8229 35.0496 79.3771 36.3322 80.5769C37.6148 81.7767 39.1567 82.3766 40.9579 82.3766ZM66.0103 82.3766C67.866 82.3766 69.4215 81.7767 70.6769 80.5769C71.9322 79.3771 72.5599 77.8229 72.5599 75.9141C72.5599 74.0054 71.9322 72.4375 70.6769 71.2104C69.4215 69.9834 67.866 69.3699 66.0103 69.3699C64.2091 69.3699 62.6672 69.9834 61.3846 71.2104C60.102 72.4375 59.4607 74.0054 59.4607 75.9141C59.4607 77.8229 60.102 79.3771 61.3846 80.5769C62.6672 81.7767 64.2091 82.3766 66.0103 82.3766Z" fill="#7347DC"/>
</svg>
