<svg width="46" height="45" viewBox="0 0 46 45" fill="none" xmlns="http://www.w3.org/2000/svg">
<circle cx="30" cy="16" r="16" fill="white"/>
<path d="M29.9945 4.43994L29.839 4.96817V20.2948L29.9945 20.4499L37.1088 16.2446L29.9945 4.43994Z" fill="#343434"/>
<path d="M29.9945 4.43994L22.88 16.2446L29.9945 20.4499V13.0108V4.43994Z" fill="#8C8C8C"/>
<path d="M29.9944 21.7969L29.9068 21.9038V27.3633L29.9944 27.6192L37.1131 17.5938L29.9944 21.7969Z" fill="#3C3C3B"/>
<path d="M29.9945 27.6192V21.7969L22.88 17.5938L29.9945 27.6192Z" fill="#8C8C8C"/>
<path d="M29.9944 20.4501L37.1087 16.2448L29.9944 13.011V20.4501Z" fill="#141414"/>
<path d="M22.88 16.2448L29.9945 20.4501V13.011L22.88 16.2448Z" fill="#393939"/>
<path d="M16 45C24.9 45 32 37.9 32 29C32 20.1 24.9 13 16 13C7.1 13 0 20.1 0 29C0 37.9 7.1 45 16 45Z" fill="#2775CA"/>
<path d="M20.4 31.5C20.4 29.2 19 28.4 16.2 28C14.2 27.7 13.8 27.2 13.8 26.3C13.8 25.4 14.5 24.8 15.8 24.8C17 24.8 17.7 25.2 18 26.2C18.1 26.4 18.3 26.5 18.5 26.5H19.6C19.9 26.5 20.1 26.3 20.1 26V26C19.8 24.5 18.6 23.4 17.1 23.3V21.7C17.1 21.4 16.9 21.2 16.6 21.2H15.6C15.3 21.2 15.1 21.4 15.1 21.7V23.2C13.1 23.5 11.8 24.8 11.8 26.5C11.8 28.7 13.1 29.6 15.9 29.9C17.8 30.2 18.4 30.6 18.4 31.7C18.4 32.8 17.5 33.5 16.2 33.5C14.5 33.5 13.9 32.8 13.7 31.8C13.6 31.5 13.4 31.4 13.2 31.4H12.1C11.8 31.4 11.6 31.6 11.6 31.9V32C11.9 33.7 12.9 34.9 15.1 35.2V36.8C15.1 37.1 15.3 37.2999 15.6 37.2999H16.6C16.9 37.2999 17.1 37.1 17.1 36.8V35.2C19.1 34.7 20.4 33.3 20.4 31.5Z" fill="white"/>
<path fill-rule="evenodd" clip-rule="evenodd" d="M6.70001 25.7001C4.80001 30.8001 7.40001 36.6001 12.6 38.5001C12.8 38.6001 13 38.9001 13 39.1001V40.0001C13 40.1001 13 40.2001 12.9 40.3001C12.8 40.6001 12.6 40.7001 12.3 40.6001C8.60001 39.4001 5.70001 36.5001 4.50001 32.8001C2.50001 26.5001 6.00001 19.7001 12.3 17.7001C12.4 17.6001 12.5 17.6001 12.6 17.6001C12.9 17.7001 13 17.9001 13 18.2001V19.1001C13 19.4001 12.9 19.6001 12.6 19.8001C9.90001 20.8001 7.70001 22.9001 6.70001 25.7001ZM19.1 18.0001C19.2 17.7001 19.4 17.6001 19.7 17.7001C23.4 18.9001 26.3 21.8001 27.5 25.6001C29.5 31.9001 26 38.7001 19.7 40.7001C19.6 40.8001 19.5 40.8001 19.4 40.8001C19.1 40.7001 19 40.5001 19 40.3001V39.4001C19 39.1001 19.1 38.9001 19.4 38.7001C22.1 37.7001 24.3 35.6001 25.3 32.8001C27.2 27.7001 24.6 21.9001 19.4 20.0001C19.2 19.7001 19 19.5001 19 19.2001V18.3001C19 18.1001 19 18.1001 19.1 18.0001Z" fill="white"/>
</svg>
