<svg width="46" height="47" viewBox="0 0 46 47" fill="none" xmlns="http://www.w3.org/2000/svg">
<circle cx="30" cy="16.0037" r="16" fill="white"/>
<path d="M27.8762 14.6887L30.0498 19.4275L33.278 17.5927H33.2838V13.9216L27.8762 14.6887Z" fill="#2BBDF7"/>
<path d="M37.4535 11.1672L35.4383 10.4221L33.2838 10.249V13.9216V21.6905L36.5163 23.5268L39.0947 18.3553L37.4594 13.3774L37.4535 11.1672Z" fill="#2891F9"/>
<path d="M37.2658 10.249L36.5164 12.0853V23.4989L39.7489 21.6612V10.249H37.2658Z" fill="#2BBDF7"/>
<path d="M36.5163 8.41431L33.2838 10.2491L36.5163 12.0854L39.7489 10.2491L36.5163 8.41431Z" fill="#2B6DEF"/>
<path d="M30.0498 15.7564L26.8173 12.1894L20.3508 10.249V21.6612L23.5833 23.4989L24.5088 17.182L26.8173 17.5926L30.0498 19.4274V15.7564Z" fill="#2891F9"/>
<path d="M23.5833 8.41431L20.3508 10.2491L30.0498 15.7564L31.515 14.9263L33.2838 13.9216L23.5833 8.41431Z" fill="#2B6DEF"/>
<path d="M23.5833 15.7563V23.4989L26.8173 21.6611V17.5926L23.5833 15.7563Z" fill="#2BBDF7"/>
<g filter="url(#filter0_d)">
<circle cx="16" cy="29.0073" r="16" fill="white"/>
</g>
<path d="M15.9945 17.4473L15.839 17.9755V33.3021L15.9945 33.4572L23.1088 29.2519L15.9945 17.4473Z" fill="#343434"/>
<path d="M15.9945 17.4473L8.88 29.2519L15.9945 33.4572V26.0181V17.4473Z" fill="#8C8C8C"/>
<path d="M15.9944 34.8042L15.9068 34.9111V40.3707L15.9944 40.6265L23.1131 30.6011L15.9944 34.8042Z" fill="#3C3C3B"/>
<path d="M15.9945 40.6265V34.8042L8.88 30.6011L15.9945 40.6265Z" fill="#8C8C8C"/>
<path d="M15.9944 33.4574L23.1087 29.2521L15.9944 26.0183V33.4574Z" fill="#141414"/>
<path d="M8.88 29.2521L15.9945 33.4574V26.0183L8.88 29.2521Z" fill="#393939"/>
<defs>
<filter id="filter0_d" x="0" y="10.0073" width="36" height="36" filterUnits="userSpaceOnUse" color-interpolation-filters="sRGB">
<feFlood flood-opacity="0" result="BackgroundImageFix"/>
<feColorMatrix in="SourceAlpha" type="matrix" values="0 0 0 0 0 0 0 0 0 0 0 0 0 0 0 0 0 0 127 0"/>
<feOffset dx="2" dy="-1"/>
<feGaussianBlur stdDeviation="1"/>
<feColorMatrix type="matrix" values="0 0 0 0 0 0 0 0 0 0 0 0 0 0 0 0 0 0 0.25 0"/>
<feBlend mode="normal" in2="BackgroundImageFix" result="effect1_dropShadow"/>
<feBlend mode="normal" in="SourceGraphic" in2="effect1_dropShadow" result="shape"/>
</filter>
</defs>
</svg>
