<svg width="46" height="46" viewBox="0 0 46 46" fill="none" xmlns="http://www.w3.org/2000/svg">
<g clip-path="url(#clip0)">
<path d="M30 32.0073C38.8366 32.0073 46 24.8439 46 16.0073C46 7.17077 38.8366 0.00732422 30 0.00732422C21.1634 0.00732422 14 7.17077 14 16.0073C14 24.8439 21.1634 32.0073 30 32.0073Z" fill="white"/>
<path d="M30.0548 29.1033C37.1664 29.1033 42.9315 23.2532 42.9315 16.0366C42.9315 8.82012 37.1664 2.96997 30.0548 2.96997C22.9432 2.96997 17.1781 8.82012 17.1781 16.0366C17.1781 23.2532 22.9432 29.1033 30.0548 29.1033Z" fill="#6088C0"/>
<path opacity="0.36" d="M30.1242 28.2449C36.7073 28.2449 42.0439 22.8281 42.0439 16.1462C42.0439 9.46435 36.7073 4.04761 30.1242 4.04761C23.5412 4.04761 18.2046 9.46435 18.2046 16.1462C18.2046 22.8281 23.5412 28.2449 30.1242 28.2449Z" fill="url(#paint0_linear)" stroke="url(#paint1_linear)" stroke-miterlimit="10"/>
<path d="M24.6849 16.6832C23.2968 16.5371 21.5069 15.77 21.2512 14.6741C22.6028 13.9435 26.548 10.1079 29.3607 10.5463C32.1735 10.9846 38.6758 14.0166 39.2238 15.8431C39.7717 17.6695 40.137 25.9253 38.274 27.1673C36.411 28.4093 29.726 30.1262 27.6804 29.6513C25.6347 29.1764 19.3516 26.3271 18.2923 23.5874C17.2329 20.8476 17.6347 18.254 18.2557 19.1307C18.8767 20.0074 25.927 26.5463 27.79 25.6695C29.653 24.7928 32.0201 20.3435 31.9909 19.0942C31.9544 17.56 31.9945 16.4422 30.4201 15.5143C28.9955 14.6741 24.8603 14.3673 24.3197 15.77C24.137 16.2449 24.7215 16.6467 24.6849 16.6832Z" fill="#293169"/>
<path d="M21.4703 14.3088C21.1416 15.0394 21.1781 14.7837 21.3973 15.0394C23.3699 13.9069 26.6941 12.9572 31.1142 14.601C30.6941 13.5745 30.0548 13.1398 29.1416 12.2996C33.3059 12.8111 37.0137 14.696 38.274 18.5462C39.0046 20.7745 39.5525 23.9161 36.7397 26.875C38.4566 26.5097 41.5617 20.5188 41.379 19.496C41.1964 18.4732 38.6393 12.8476 37.6164 12.2266C36.5936 11.6056 37.3607 11.8978 38.3836 11.8978C39.4064 11.8978 40.6119 11.9709 41.8904 12.7745C39.9909 10.8384 34.8402 8.61014 34.1461 8.86584C33.4521 9.12155 33.2694 8.35443 33.0137 8.17178C33.5982 7.69689 34.6977 6.601 35.169 5.57817C36.0091 3.75169 36.0201 2.45488 36.0822 1.3042C35.4795 3.14895 35.4612 3.05762 34.0731 4.81105C32.6849 6.56447 31.0046 7.29507 30.4201 7.3316C29.8356 7.36813 29.032 7.51425 28.9589 7.87954C28.8493 9.01196 28.0457 9.70603 26.8767 9.85215C27.4247 10.6923 23.0776 13.6147 23.0046 13.2859C22.9315 12.9572 21.7991 14.5279 21.653 14.4549C21.5069 14.3818 21.5069 14.3818 21.5069 14.3818" fill="#19203E"/>
<path d="M17.1598 15.843C18.9498 21.0667 24.1004 23.3681 27.7169 22.1626C31.5854 20.8731 31.8995 18.674 31.8082 17.7791C31.7205 16.917 31.4794 16.4275 30.8219 15.7334C31.9726 16.6539 32.3562 17.8923 32.3927 18.2539C32.4657 18.948 32.3196 19.8978 32.1004 20.3727C33.0502 19.7882 33.1233 19.7517 33.1233 19.7517C33.1233 19.7517 33.0502 20.3361 32.831 20.9206C33.5616 20.5188 33.8539 20.2996 34.1461 20.0074C34.7306 22.1626 33.379 24.464 31.0046 25.9252C28.6301 27.3864 26.5479 27.5325 24.831 27.1672C22.4822 26.6667 19.158 24.3325 18.4749 22.5279C17.7516 20.6101 17.0502 17.8156 17.1598 15.843Z" fill="#19203E"/>
<path d="M42.4383 19.2036C41.9634 12.884 37.5068 10.7287 34.1096 10.1077C36.0822 10.1077 37.9817 10.9479 38.895 11.3863C38.6392 10.8748 38.6392 11.1305 38.4201 10.6191C39.8447 11.2036 41.4155 12.336 41.9634 12.7379C38.5662 8.79265 34.8036 8.31776 33.0502 8.06205C32.5753 8.57347 31.516 9.15794 30.2374 9.66936C30.9315 9.15794 31.1141 8.42735 31.2603 7.91593C34.0913 6.76525 34.9132 4.9205 34.9132 4.9205C34.9132 4.9205 34.9132 4.9205 34 5.17621C34.7306 4.44561 35.8082 2.6374 36.1004 1.24927C35.4064 3.18534 33.1963 5.35886 31.3698 6.49128C31.4064 6.08945 31.2237 5.43192 30.8219 4.95703C30.0913 6.60087 27.3881 7.51411 26.7306 7.73329C26.073 7.95246 25.6712 8.39082 25.4886 8.93877C25.3863 9.24927 25.5251 10.2904 26.4383 10.3634C26.4383 10.3634 26 10.6922 25.3059 10.1808C24.9041 10.7652 23.9908 11.5324 23.1507 11.5689C22.6429 11.5908 22.4931 10.9114 22.7123 10.2538C21.0319 11.3132 19.9361 13.4684 20.8128 15.6237C21.2146 15.0758 22.1644 14.3817 23.7717 13.7242C25.8575 12.8694 28.4657 12.9753 31.0959 13.6694C30.7306 13.0118 30.1096 12.3543 28.9406 11.7698C36.9041 11.6968 38.9607 17.2164 39.2968 19.7516C39.5525 21.6876 39.6803 27.441 32.1552 28.5735C24.4 29.7424 17.379 24.3178 17.1598 16.0621C17.0319 14.2538 16.7945 20.7744 17.0137 22.0164C18.2813 29.2054 26.8767 30.6739 31.589 30.4913C36.3013 30.3086 42.9132 25.505 42.4383 19.2036ZM22.7854 12.8474C22.6392 12.5552 22.4566 12.5552 22.2009 12.7013C21.9452 12.8474 21.6529 13.1762 21.6529 13.1762C21.8356 12.2995 22.4566 11.8611 22.6758 11.9707C22.895 12.0803 23.0045 12.3726 22.7854 12.8474ZM28.5753 9.46845C27.3333 9.94333 26.8767 9.81548 26.8767 9.81548C26.8767 8.79265 27.8995 8.71959 28.3013 8.53694C28.7032 8.35429 29.8356 8.02552 30.0182 7.58717C29.6529 8.68306 29.2657 9.20543 28.5753 9.46845Z" fill="white"/>
</g>
<circle cx="16" cy="29.011" r="16" fill="#7950DD"/>
<path d="M9.56486 24.251L10.0294 23.9909C10.94 23.4811 12.05 23.4811 12.9606 23.9909L13.4251 24.251C14.3727 24.7815 14.9596 25.7827 14.9596 26.8686V27.4951L16.99 26.3395V24.3996C16.99 24.1358 16.8449 23.892 16.6093 23.7601L11.8757 21.1099C11.6401 20.978 11.3499 20.978 11.1143 21.1099L6.3807 23.7601C6.14512 23.892 6 24.1358 6 24.3996V29.7C6 29.9638 6.14512 30.2075 6.3807 30.3394L11.1143 32.9897C11.3499 33.1215 11.6401 33.1215 11.8757 32.9897L15.01 31.2348L17.0404 30.0325L19.0394 28.9133C19.95 28.4035 21.06 28.4035 21.9706 28.9133L22.4351 29.1734C23.3827 29.7039 23.9696 30.7051 23.9696 31.791V32.1534C23.9696 33.2393 23.3827 34.2405 22.4351 34.771L21.9706 35.0311C21.06 35.5409 19.95 35.5409 19.0394 35.0311L18.5749 34.771C17.6273 34.2405 17.0404 33.2393 17.0404 32.1534V31.6881L15.01 32.8435V34.6224C15.01 34.8862 15.1551 35.13 15.3907 35.2618L20.1243 37.9121C20.3599 38.044 20.6501 38.044 20.8857 37.9121L25.6193 35.2618C25.8549 35.13 26 34.8862 26 34.6224V29.322C26 29.0582 25.8549 28.8144 25.6193 28.6825L20.8857 26.0323C20.6501 25.9004 20.3599 25.9004 20.1243 26.0323L19.648 26.299L14.9596 28.9895L12.9606 30.1087C12.05 30.6185 10.94 30.6185 10.0294 30.1087L9.56486 29.8486C8.6173 29.3181 8.03042 28.3169 8.03042 27.2309V26.8686C8.03042 25.7827 8.6173 24.7815 9.56486 24.251Z" fill="white"/>
<circle cx="16" cy="29" r="16" fill="white"/>
<path d="M13.8762 27.685L16.0498 32.4238L19.278 30.589H19.2838V26.918L13.8762 27.685Z" fill="#2BBDF7"/>
<path d="M23.4535 24.1635L21.4383 23.4184L19.2838 23.2454V26.9179V34.6868L22.5163 36.5231L25.0947 31.3516L23.4594 26.3738L23.4535 24.1635Z" fill="#2891F9"/>
<path d="M23.2658 23.2454L22.5164 25.0816V36.4952L25.7489 34.6575V23.2454H23.2658Z" fill="#2BBDF7"/>
<path d="M22.5163 21.4106L19.2838 23.2454L22.5163 25.0817L25.7489 23.2454L22.5163 21.4106Z" fill="#2B6DEF"/>
<path d="M16.0498 28.7527L12.8173 25.1858L6.35077 23.2454V34.6575L9.5833 36.4952L10.5088 30.1783L12.8173 30.589L16.0498 32.4238V28.7527Z" fill="#2891F9"/>
<path d="M9.5833 21.4106L6.35077 23.2454L16.0498 28.7528L17.515 27.9226L19.2838 26.918L9.5833 21.4106Z" fill="#2B6DEF"/>
<path d="M9.58331 28.7527V36.4952L12.8173 34.6575V30.589L9.58331 28.7527Z" fill="#2BBDF7"/>
<defs>
<linearGradient id="paint0_linear" x1="24.2519" y1="6.65725" x2="36.8692" y2="27.0489" gradientUnits="userSpaceOnUse">
<stop stop-color="white"/>
<stop offset="0.2597" stop-color="white" stop-opacity="0"/>
</linearGradient>
<linearGradient id="paint1_linear" x1="21.6178" y1="24.6504" x2="38.6277" y2="7.64049" gradientUnits="userSpaceOnUse">
<stop stop-color="white"/>
<stop offset="1" stop-color="white" stop-opacity="0"/>
</linearGradient>
<clipPath id="clip0">
<rect width="32" height="32" fill="white" transform="translate(14 0.00732422)"/>
</clipPath>
</defs>
</svg>
