<svg width="32" height="32" viewBox="0 0 32 32" fill="none" xmlns="http://www.w3.org/2000/svg">
<circle cx="16" cy="16" r="16" fill="white"/>
<path d="M13.8762 14.685L16.0498 19.4238L19.278 17.589H19.2838V13.918L13.8762 14.685Z" fill="#2BBDF7"/>
<path d="M23.4535 11.1635L21.4383 10.4184L19.2838 10.2454V13.9179V21.6868L22.5163 23.5231L25.0947 18.3516L23.4594 13.3738L23.4535 11.1635Z" fill="#2891F9"/>
<path d="M23.2658 10.2454L22.5164 12.0816V23.4952L25.7489 21.6575V10.2454H23.2658Z" fill="#2BBDF7"/>
<path d="M22.5163 8.41064L19.2838 10.2454L22.5163 12.0817L25.7489 10.2454L22.5163 8.41064Z" fill="#2B6DEF"/>
<path d="M16.0498 15.7527L12.8173 12.1858L6.35077 10.2454V21.6575L9.5833 23.4952L10.5088 17.1783L12.8173 17.589L16.0498 19.4238V15.7527Z" fill="#2891F9"/>
<path d="M9.5833 8.41064L6.35077 10.2454L16.0498 15.7528L17.515 14.9226L19.2838 13.918L9.5833 8.41064Z" fill="#2B6DEF"/>
<path d="M9.58331 15.7527V23.4952L12.8173 21.6575V17.589L9.58331 15.7527Z" fill="#2BBDF7"/>
</svg>
