<svg width="46" height="46" viewBox="0 0 46 46" fill="none" xmlns="http://www.w3.org/2000/svg">
<path d="M30 31.52C38.5715 31.52 45.52 24.5714 45.52 16C45.52 7.42852 38.5715 0.47998 30 0.47998C21.4286 0.47998 14.48 7.42852 14.48 16C14.48 24.5714 21.4286 31.52 30 31.52Z" fill="url(#paint0_linear)"/>
<path d="M36.7921 22.184L31.5441 9.49602C31.2481 8.84002 30.8081 8.52002 30.2281 8.52002H29.7641C29.1841 8.52002 28.7441 8.84002 28.4481 9.49602L26.1641 15.024H24.4361C23.9201 15.028 23.5001 15.444 23.4961 15.964V15.976C23.5001 16.492 23.9201 16.912 24.4361 16.916H25.3641L23.1841 22.184C23.1441 22.3 23.1201 22.42 23.1201 22.544C23.1201 22.84 23.2121 23.072 23.3761 23.252C23.5401 23.432 23.7761 23.52 24.0721 23.52C24.2681 23.516 24.4561 23.456 24.6121 23.34C24.7801 23.224 24.8961 23.056 24.9881 22.864L27.3881 16.912H29.0521C29.5681 16.908 29.9881 16.492 29.9921 15.972V15.948C29.9881 15.432 29.5681 15.012 29.0521 15.008H28.1641L29.9961 10.444L34.9881 22.86C35.0801 23.052 35.1961 23.22 35.3641 23.336C35.5201 23.452 35.7121 23.512 35.9041 23.516C36.2001 23.516 36.4321 23.428 36.6001 23.248C36.7681 23.068 36.8561 22.836 36.8561 22.54C36.8601 22.42 36.8401 22.296 36.7921 22.184Z" fill="white"/>
<circle cx="16" cy="29.0037" r="16" fill="white"/>
<path d="M15.9945 17.4436L15.839 17.9718V33.2984L15.9945 33.4536L23.1088 29.2483L15.9945 17.4436Z" fill="#343434"/>
<path d="M15.9945 17.4436L8.88 29.2483L15.9945 33.4536V26.0145V17.4436Z" fill="#8C8C8C"/>
<path d="M15.9944 34.8006L15.9068 34.9074V40.367L15.9944 40.6229L23.1131 30.5974L15.9944 34.8006Z" fill="#3C3C3B"/>
<path d="M15.9945 40.6229V34.8006L8.88 30.5974L15.9945 40.6229Z" fill="#8C8C8C"/>
<path d="M15.9944 33.4538L23.1087 29.2484L15.9944 26.0146V33.4538Z" fill="#141414"/>
<path d="M8.88 29.2484L15.9945 33.4538V26.0146L8.88 29.2484Z" fill="#393939"/>
<defs>
<linearGradient id="paint0_linear" x1="41.5715" y1="6.26344" x2="18.4778" y2="25.6945" gradientUnits="userSpaceOnUse">
<stop stop-color="#B6509E"/>
<stop offset="1" stop-color="#2EBAC6"/>
</linearGradient>
</defs>
</svg>
