<svg width="46" height="46" viewBox="0 0 46 46" fill="none" xmlns="http://www.w3.org/2000/svg">
<g clip-path="url(#clip0)">
<path d="M45.8707 16C45.8707 24.7652 38.7652 31.8706 30.0001 31.8706C21.235 31.8706 14.1295 24.7652 14.1295 16C14.1295 7.2349 21.235 0.129395 30.0001 0.129395C38.7652 0.129395 45.8707 7.2349 45.8707 16Z" fill="#FEA200"/>
<path d="M22.0461 10.368H24.8894V11.6358H22.0461V10.368ZM22.0461 12.9036H24.8894V21.7782H22.0461V12.9036Z" fill="black"/>
<path d="M21.2171 10.368H23.4545V11.6358H21.2171V10.368ZM21.2171 12.9036H23.4545V21.7782H21.2171V12.9036Z" fill="white"/>
<path d="M36.385 11.2196V9.88382H35.0623H34.8762H33.9933V7.57672H32.4612V9.88382H32.2176H30.8948H30.8946V7.57672H29.3626V9.88353H26.8045V11.2716H28.2363V12.5423V13.8781V15.2009V16.5237V17.8594V19.1822V20.505V21.775H26.8045V23.1631H28.2363V23.1635H29.3626V25.1059H30.8947V23.1635H30.8948H32.2176H33.5534H34.8762H35.0623H37.6992V21.8407H38.8939V20.505V19.1822V17.8594V16.5237H36.385V15.2009H37.7078V13.8781V12.5423V11.2196H36.385V11.2196ZM30.8948 13.8781V12.5423H32.2176H33.5534H34.0512H34.2373V13.8781V15.2009H34.0512H33.5534H32.2176H30.8948V13.8781ZM35.0623 19.1822V20.505H34.8762H33.5534H32.2176H30.8948V19.1822V17.8594H32.2176H33.5534H34.8762H35.0623V19.1822Z" fill="black"/>
<path d="M32.4612 23.1635V25.106H33.9933V23.1635H33.5534H32.4612Z" fill="black"/>
<path d="M35.0622 11.2196V9.88382H33.7394H33.5533H32.6704V7.57672H31.1383V9.88382H30.8947H29.572H29.5718V7.57672H28.0397V9.88353H25.4817V11.2716H26.9134V12.5423V13.8781V15.2009V16.5237V17.8594V19.1822V20.505V21.775H25.4817V23.1631H26.9134V23.1635H28.0397V25.1059H29.5718V23.1635H29.572H30.8948H32.2305H33.5533H33.7394H36.3764V21.8407H37.571V20.505V19.1822V17.8594V16.5237H35.0622V15.2009H36.385V13.8781V12.5423V11.2196H35.0622V11.2196ZM29.572 13.8781V12.5423H30.8948H32.2305H32.7284H32.9145V13.8781V15.2009H32.7284H32.2305H30.8948H29.572V13.8781ZM33.7394 19.1822V20.505H33.5533H32.2305H30.8948H29.572V19.1822V17.8594H30.8948H32.2305H33.5533H33.7394V19.1822Z" fill="white"/>
<path d="M31.1384 23.1635V25.106H32.6705V23.1635H32.2305H31.1384Z" fill="white"/>
</g>
<path d="M31.5213 32.8728C29.3841 41.4453 20.7016 46.6623 12.1281 44.5246C3.55818 42.3875 -1.65886 33.7044 0.479231 25.1326C2.61545 16.5592 11.298 11.3418 19.8688 13.4789C28.4417 15.6161 33.6584 24.3001 31.521 32.873L31.5212 32.8728H31.5213Z" fill="#F7931A"/>
<path fill-rule="evenodd" clip-rule="evenodd" d="M23.0562 26.7219C23.3747 24.5925 21.7534 23.4478 19.5365 22.6842L20.2557 19.7996L18.4997 19.362L17.7996 22.1707C17.338 22.0555 16.8639 21.9471 16.3928 21.8395L17.098 19.0123L15.3431 18.5748L14.6235 21.4584C14.2415 21.3715 13.8663 21.2855 13.5023 21.1949L13.5044 21.1859L11.0829 20.5812L10.6158 22.4566C10.6158 22.4566 11.9185 22.7553 11.8911 22.7736C12.6021 22.9511 12.7307 23.4218 12.7094 23.7949L11.8902 27.0811C11.9391 27.0935 12.0026 27.1115 12.0727 27.1397L12.0216 27.1269C11.9783 27.1161 11.9333 27.1048 11.8871 27.0938L10.7388 31.6973C10.6519 31.9133 10.4314 32.2375 9.93422 32.1144C9.95182 32.1399 8.65798 31.7959 8.65798 31.7959L7.78619 33.8059L10.0713 34.3756C10.3214 34.4383 10.5687 34.5027 10.8134 34.5665L10.8136 34.5666L10.814 34.5667C10.9849 34.6112 11.1546 34.6555 11.3232 34.6986L10.5966 37.6163L12.3505 38.0538L13.07 35.1671C13.5492 35.2972 14.0142 35.4171 14.4694 35.5302L13.7522 38.4033L15.5082 38.8409L16.2348 35.9287C19.229 36.4953 21.4805 36.2669 22.4281 33.5586C23.1917 31.3781 22.3901 30.1204 20.8148 29.3002C21.9622 29.0356 22.8264 28.281 23.0568 26.7222L23.0563 26.7218L23.0562 26.7219ZM19.0443 32.348C18.5464 34.3485 15.4151 33.5214 13.9824 33.143L13.9822 33.143C13.8534 33.109 13.7383 33.0786 13.6401 33.0542L14.6043 29.1888C14.7241 29.2187 14.8704 29.2515 15.0361 29.2887C16.5181 29.6213 19.5544 30.3027 19.0444 32.348H19.0443ZM15.3333 27.4945C16.5278 27.8133 19.1335 28.5087 19.5873 26.6905H19.5875C20.0508 24.8309 17.5185 24.2702 16.2817 23.9964C16.1426 23.9656 16.0199 23.9384 15.9196 23.9135L15.0454 27.4191C15.1279 27.4397 15.2248 27.4656 15.3333 27.4945Z" fill="white"/>
<g clip-path="url(#clip1)">
<path d="M15.9972 45C12.8329 44.9994 9.73989 44.0606 7.10915 42.3023C4.47841 40.544 2.42811 38.0451 1.21747 35.1216C0.00682669 32.1981 -0.30978 28.9813 0.307677 25.8778C0.925134 22.7744 2.44893 19.9238 4.68639 17.6863C6.92385 15.4488 9.77451 13.925 12.8779 13.3076C15.9814 12.6901 19.1982 13.0067 22.1217 14.2174C25.0452 15.428 27.5441 17.4783 29.3024 20.1091C31.0607 22.7398 31.9995 25.8328 32.0001 28.9971C32.0005 31.0987 31.5868 33.1799 30.7827 35.1216C29.9786 37.0633 28.7999 38.8276 27.3138 40.3137C25.8277 41.7998 24.0634 42.9786 22.1217 43.7826C20.1799 44.5867 18.0988 45.0004 15.9972 45Z" fill="#262335"/>
<path d="M26.0927 19.7157L25.2141 20.5944C27.3107 22.8871 28.4733 25.8815 28.4733 28.9883C28.4733 32.0951 27.3107 35.0895 25.2141 37.3822L26.0927 38.2608C28.4243 35.7318 29.7188 32.4179 29.7188 28.978C29.7188 25.5382 28.4243 22.2243 26.0927 19.6952V19.7157Z" fill="#FBFBFB"/>
<path d="M7.61496 19.7918C9.90771 17.6953 12.9021 16.5326 16.0089 16.5326C19.1157 16.5326 22.1101 17.6953 24.4028 19.7918L25.2814 18.9132C22.7524 16.5816 19.4385 15.2871 15.9986 15.2871C12.5588 15.2871 9.24489 16.5816 6.71582 18.9132L7.61496 19.7918Z" fill="#FBFBFB"/>
<path d="M6.79194 37.391C4.69785 35.0987 3.53672 32.1062 3.53672 29.0014C3.53672 25.8967 4.69785 22.9042 6.79194 20.6119L5.9133 19.7333C3.58169 22.2623 2.2872 25.5762 2.2872 29.0161C2.2872 32.4559 3.58169 35.7698 5.9133 38.2989L6.79194 37.391Z" fill="#FBFBFB"/>
<path d="M24.3911 38.2022C22.0983 40.2988 19.104 41.4614 15.9972 41.4614C12.8904 41.4614 9.896 40.2988 7.60325 38.2022L6.72461 39.0808C9.25368 41.4125 12.5676 42.7069 16.0074 42.7069C19.4473 42.7069 22.7612 41.4125 25.2902 39.0808L24.3911 38.2022Z" fill="#FBFBFB"/>
<path d="M21.5472 26.0682C21.3715 24.2348 19.7899 23.6197 17.7896 23.4323V20.9077H16.2432V23.3854C15.8361 23.3854 15.4202 23.3854 15.0072 23.3854V20.9077H13.4725V23.4499H10.3358V25.1046C10.3358 25.1046 11.478 25.0841 11.4604 25.1046C11.6664 25.082 11.8731 25.1402 12.037 25.2669C12.2009 25.3937 12.3092 25.5791 12.3391 25.7841V32.7429C12.3347 32.8152 12.3158 32.8859 12.2836 32.9508C12.2514 33.0157 12.2066 33.0735 12.1516 33.1208C12.0978 33.1689 12.0347 33.2057 11.9662 33.2288C11.8978 33.252 11.8254 33.261 11.7533 33.2555C11.7738 33.2731 10.6287 33.2555 10.6287 33.2555L10.3358 35.1035H13.4432V37.6867H14.9896V35.1416H16.2256V37.675H17.7749V35.1211C20.3874 34.963 22.2091 34.3186 22.4376 31.8731C22.6221 29.9049 21.6966 29.0263 20.2175 28.6719C21.1167 28.2297 21.6731 27.4096 21.5472 26.0682ZM19.3799 31.5685C19.3799 33.4898 16.0879 33.2701 15.0394 33.2701V29.861C16.0879 29.8639 19.3799 29.5623 19.3799 31.5685ZM18.6623 26.7653C18.6623 28.5225 15.9151 28.3087 15.0424 28.3087V25.2101C15.9151 25.2101 18.6623 24.9348 18.6623 26.7653Z" fill="white"/>
<path d="M15.9971 45C12.8329 44.9994 9.73986 44.0606 7.10912 42.3023C4.47838 40.5439 2.42807 38.0451 1.21744 35.1216C0.00679621 32.1981 -0.30981 28.9812 0.307647 25.8778C0.925104 22.7744 2.4489 19.9237 4.68636 17.6863C6.92382 15.4488 9.77448 13.925 12.8779 13.3076C15.9813 12.6901 19.1982 13.0067 22.1217 14.2173C25.0451 15.428 27.544 17.4783 29.3024 20.109C31.0607 22.7398 31.9995 25.8328 32.0001 28.997C32.0005 31.0987 31.5868 33.1798 30.7827 35.1216C29.9786 37.0633 28.7999 38.8276 27.3138 40.3137C25.8277 41.7998 24.0634 42.9785 22.1217 43.7826C20.1799 44.5867 18.0988 45.0004 15.9971 45V45ZM15.9971 14.2476C13.0819 14.25 10.2328 15.1165 7.80987 16.7377C5.38697 18.3589 3.49907 20.6619 2.38479 23.3558C1.27051 26.0497 0.979871 29.0135 1.5496 31.8725C2.11933 34.7316 3.52386 37.3575 5.58566 39.4185C7.64746 41.4795 10.274 42.883 13.1332 43.4516C15.9925 44.0202 18.9562 43.7284 21.6496 42.613C24.3431 41.4977 26.6454 39.6088 28.2656 37.1853C29.8859 34.7618 30.7512 31.9123 30.7524 28.997C30.7532 27.0594 30.372 25.1406 29.6307 23.3504C28.8894 21.5602 27.8024 19.9337 26.432 18.5639C25.0617 17.194 23.4347 16.1077 21.6442 15.3671C19.8537 14.6265 17.9348 14.2461 15.9971 14.2476V14.2476Z" fill="white"/>
</g>
<defs>
<clipPath id="clip0">
<rect width="32" height="32" fill="white" transform="translate(14.0001)"/>
</clipPath>
<clipPath id="clip1">
<rect width="32" height="32" fill="white" transform="translate(9.15527e-05 13)"/>
</clipPath>
</defs>
</svg>
