<svg width="32" height="32" viewBox="0 0 32 32" fill="none" xmlns="http://www.w3.org/2000/svg">
<path d="M31.8706 16C31.8706 24.7652 24.7651 31.8706 16 31.8706C7.23487 31.8706 0.129364 24.7652 0.129364 16C0.129364 7.2349 7.23487 0.129395 16 0.129395C24.7651 0.129395 31.8706 7.2349 31.8706 16Z" fill="#FEA200"/>
<path d="M8.04593 10.368H10.8893V11.6358H8.04593V10.368ZM8.04593 12.9036H10.8893V21.7782H8.04593V12.9036Z" fill="black"/>
<path d="M7.21698 10.368H9.45435V11.6358H7.21698V10.368ZM7.21698 12.9036H9.45435V21.7782H7.21698V12.9036Z" fill="white"/>
<path d="M22.3849 11.2196V9.88382H21.0621H20.876H19.9931V7.57672H18.4611V9.88382H18.2175H16.8947H16.8945V7.57672H15.3624V9.88353H12.8044V11.2716H14.2362V12.5423V13.8781V15.2009V16.5237V17.8594V19.1822V20.505V21.775H12.8044V23.1631H14.2362V23.1635H15.3625V25.1059H16.8946V23.1635H16.8947H18.2175H19.5532H20.876H21.0621H23.6991V21.8407H24.8938V20.505V19.1822V17.8594V16.5237H22.3849V15.2009H23.7077V13.8781V12.5423V11.2196H22.3849V11.2196ZM16.8947 13.8781V12.5423H18.2175H19.5532H20.0511H20.2372V13.8781V15.2009H20.0511H19.5532H18.2175H16.8947V13.8781ZM21.0621 19.1822V20.505H20.876H19.5532H18.2175H16.8947V19.1822V17.8594H18.2175H19.5532H20.876H21.0621V19.1822Z" fill="black"/>
<path d="M18.4611 23.1635V25.106H19.9932V23.1635H19.5533H18.4611Z" fill="black"/>
<path d="M21.0621 11.2196V9.88382H19.7393H19.5532H18.6703V7.57672H17.1382V9.88382H16.8946H15.5718H15.5717V7.57672H14.0396V9.88353H11.4816V11.2716H12.9133V12.5423V13.8781V15.2009V16.5237V17.8594V19.1822V20.505V21.775H11.4816V23.1631H12.9133V23.1635H14.0396V25.1059H15.5717V23.1635H15.5719H16.8947H18.2304H19.5532H19.7393H22.3763V21.8407H23.5709V20.505V19.1822V17.8594V16.5237H21.0621V15.2009H22.3849V13.8781V12.5423V11.2196H21.0621V11.2196ZM15.5719 13.8781V12.5423H16.8947H18.2304H18.7283H18.9144V13.8781V15.2009H18.7283H18.2304H16.8947H15.5719V13.8781ZM19.7393 19.1822V20.505H19.5532H18.2304H16.8947H15.5719V19.1822V17.8594H16.8947H18.2304H19.5532H19.7393V19.1822Z" fill="white"/>
<path d="M17.1382 23.1635V25.106H18.6703V23.1635H18.2304H17.1382Z" fill="white"/>
</svg>
