<svg width="30" height="30" viewBox="0 0 30 30" fill="none" xmlns="http://www.w3.org/2000/svg">
<path d="M15 0C23.285 0 30 6.71632 30 15C30 23.285 23.285 30 15 30C6.71632 30 0 23.2844 0 15C0 6.71632 6.71632 0 15 0Z" fill="#F5AC37"/>
<path fill-rule="evenodd" clip-rule="evenodd" d="M7.85644 23.2688V23.3249L7.85374 23.3269V23.3363H14.3601C15.0966 23.3465 15.8303 23.2877 16.5539 23.1581C17.316 23.009 18.0585 22.7741 18.7666 22.4555C19.0736 22.3133 19.3682 22.1414 19.6653 21.968C19.7406 21.9241 19.816 21.8801 19.8918 21.8365C20.2415 21.5874 20.5763 21.3174 20.8949 21.0305C21.767 20.2421 22.442 19.2586 22.8639 18.1617C22.8922 18.0389 23.0124 17.9599 23.1359 17.9835H24.9078C25.0489 17.9835 25.0954 17.9363 25.0954 17.777V16.6423C25.1049 16.5336 25.1049 16.4236 25.0954 16.3149C25.0954 16.2865 25.1027 16.2582 25.11 16.2299C25.1246 16.1735 25.139 16.1173 25.0954 16.0611H23.6151C23.4363 16.0611 23.4363 16.0422 23.4363 15.8829C23.4876 15.3119 23.4876 14.7388 23.4363 14.1677C23.4268 13.999 23.4646 13.999 23.5956 13.999H24.8896C25.0401 13.999 25.0961 13.9612 25.0961 13.8113V12.2736C25.0915 12.1718 25.0891 12.1202 25.0621 12.094C25.0343 12.0671 24.9805 12.0671 24.8713 12.0671H23.1933C23.0623 12.0894 22.9368 12.0009 22.9131 11.87C22.7208 11.3671 22.4757 10.8858 22.1808 10.4356C21.8838 9.99145 21.549 9.5743 21.1777 9.18887C20.6843 8.69611 20.1301 8.26816 19.528 7.91378C18.6201 7.3866 17.6272 7.01737 16.5937 6.82634C16.0922 6.73387 15.5853 6.67784 15.075 6.65759H8.04409C7.85644 6.65759 7.85644 6.69539 7.85644 6.84524V11.8983C7.85644 12.0765 7.81864 12.0765 7.67824 12.0765H5.66267C5.51282 12.0765 5.51282 12.1042 5.51282 12.2075V13.8572C5.51282 14.0071 5.55939 14.0071 5.67212 14.0071H7.70659C7.85644 14.0071 7.85644 14.0347 7.85644 14.1475V15.9099C7.85644 16.0692 7.80919 16.0692 7.68769 16.0692H5.51282V17.8506C5.51282 18.0004 5.55939 18.0004 5.67212 18.0004H7.70659C7.85644 18.0004 7.85644 18.0186 7.85644 18.1408V20.344V21.0845V23.2688ZM20.8037 11.9159C20.8199 11.9577 20.8199 12.0043 20.8037 12.0468H20.8489C20.83 12.1029 20.7362 12.1218 20.7362 12.1218H9.91787C9.73967 12.1218 9.73967 12.084 9.73967 11.9436V8.61579C9.73967 8.49361 9.75857 8.43758 9.89897 8.43758H14.9332C15.4691 8.43286 16.0037 8.48889 16.5269 8.60634C17.5637 8.85204 18.5283 9.34074 19.3396 10.0313C19.5016 10.1521 19.6461 10.2945 19.7709 10.4532C20.0355 10.7157 20.2678 11.008 20.4649 11.3253C20.5958 11.5109 20.7085 11.7087 20.8037 11.9159ZM21.2526 16.0591H15.5528H9.96512C9.74035 16.0591 9.74035 16.0591 9.74035 15.8438V14.1751C9.74035 14.0435 9.77815 13.9969 9.91855 13.9969H21.262C21.3842 13.9969 21.4402 14.0435 21.4402 14.1562C21.4868 14.7367 21.4868 15.32 21.4402 15.8998C21.4315 16.0591 21.3741 16.0591 21.2526 16.0591ZM20.8037 18.0092C20.6444 17.9916 20.4838 17.9916 20.3245 18.0092H9.928C9.7876 18.0092 9.74035 18.0092 9.74035 18.1968V21.4504C9.74035 21.6002 9.74035 21.638 9.928 21.638H14.728C14.9575 21.6556 15.187 21.6394 15.4118 21.5914C16.1084 21.5415 16.7935 21.3903 17.4469 21.1412C17.6845 21.0589 17.914 20.9515 18.1307 20.8226H18.1962C19.3214 20.2374 20.2354 19.318 20.8118 18.1894C20.8118 18.1894 20.8773 18.0477 20.8037 18.0105V18.0092Z" fill="#FEFEFD"/>
</svg>
