<svg width="46" height="45" viewBox="0 0 46 45" fill="none" xmlns="http://www.w3.org/2000/svg">
<path d="M30 32C38.8366 32 46 24.8366 46 16C46 7.16344 38.8366 0 30 0C21.1634 0 14 7.16344 14 16C14 24.8366 21.1634 32 30 32Z" fill="white"/>
<path d="M30.0548 29.0959C37.1664 29.0959 42.9315 23.2457 42.9315 16.0292C42.9315 8.8127 37.1664 2.96255 30.0548 2.96255C22.9432 2.96255 17.1781 8.8127 17.1781 16.0292C17.1781 23.2457 22.9432 29.0959 30.0548 29.0959Z" fill="#6088C0"/>
<path opacity="0.36" d="M30.1242 28.2374C36.7072 28.2374 42.0438 22.8207 42.0438 16.1388C42.0438 9.45692 36.7072 4.04018 30.1242 4.04018C23.5412 4.04018 18.2046 9.45692 18.2046 16.1388C18.2046 22.8207 23.5412 28.2374 30.1242 28.2374Z" fill="url(#paint0_linear)" stroke="url(#paint1_linear)" stroke-miterlimit="10"/>
<path d="M24.685 16.6758C23.2968 16.5297 21.5069 15.7626 21.2512 14.6667C22.6028 13.9361 26.548 10.1005 29.3608 10.5388C32.1735 10.9772 38.6758 14.0091 39.2238 15.8356C39.7717 17.6621 40.137 25.9178 38.274 27.1598C36.411 28.4018 29.7261 30.1187 27.6804 29.6438C25.6347 29.169 19.3516 26.3196 18.2923 23.5799C17.2329 20.8402 17.6347 18.2466 18.2557 19.1233C18.8767 20 25.927 26.5388 27.79 25.6621C29.653 24.7854 32.0201 20.3361 31.9909 19.0868C31.9544 17.5525 31.9946 16.4347 30.4201 15.5069C28.9955 14.6667 24.8603 14.3598 24.3197 15.7626C24.137 16.2375 24.7215 16.6393 24.685 16.6758Z" fill="#293169"/>
<path d="M21.4703 14.3014C21.1415 15.032 21.1781 14.7763 21.3972 15.032C23.3698 13.8996 26.694 12.9498 31.1141 14.5937C30.694 13.5672 30.0548 13.1325 29.1415 12.2923C33.3059 12.8037 37.0137 14.6887 38.2739 18.5389C39.0045 20.7672 39.5525 23.9088 36.7397 26.8677C38.4566 26.5024 41.5616 20.5115 41.379 19.4887C41.1963 18.4658 38.6392 12.8403 37.6164 12.2193C36.5936 11.5982 37.3607 11.8905 38.3835 11.8905C39.4064 11.8905 40.6118 11.9635 41.8904 12.7672C39.9908 10.8311 34.8402 8.60281 34.1461 8.85852C33.452 9.11423 33.2694 8.3471 33.0137 8.16446C33.5981 7.68957 34.6977 6.59368 35.1689 5.57085C36.0091 3.74436 36.0201 2.44756 36.0822 1.29688C35.4794 3.14162 35.4612 3.0503 34.073 4.80372C32.6849 6.55715 31.0045 7.28774 30.4201 7.32427C29.8356 7.3608 29.0319 7.50692 28.9589 7.87222C28.8493 9.00464 28.0456 9.6987 26.8767 9.84482C27.4246 10.685 23.0776 13.6074 23.0045 13.2786C22.9315 12.9498 21.7991 14.5206 21.6529 14.4476C21.5068 14.3745 21.5068 14.3745 21.5068 14.3745" fill="#19203E"/>
<path d="M17.1598 15.8356C18.9498 21.0593 24.1004 23.3607 27.7169 22.1552C31.5854 20.8657 31.8995 18.6667 31.8082 17.7717C31.7205 16.9096 31.4794 16.4201 30.8219 15.726C31.9726 16.6466 32.3562 17.8849 32.3927 18.2466C32.4657 18.9406 32.3196 19.8904 32.1004 20.3653C33.0502 19.7808 33.1233 19.7443 33.1233 19.7443C33.1233 19.7443 33.0502 20.3288 32.831 20.9132C33.5616 20.5114 33.8539 20.2922 34.1461 20C34.7306 22.1552 33.379 24.4566 31.0046 25.9178C28.6301 27.379 26.5479 27.5251 24.831 27.1598C22.4822 26.6593 19.158 24.3251 18.4749 22.5205C17.7516 20.6027 17.0502 17.8082 17.1598 15.8356Z" fill="#19203E"/>
<path d="M42.4383 19.1963C41.9635 12.8766 37.5068 10.7214 34.1096 10.1004C36.0822 10.1004 37.9817 10.9406 38.895 11.3789C38.6393 10.8675 38.6393 11.1232 38.4201 10.6118C39.8447 11.1963 41.4155 12.3287 41.9635 12.7305C38.5662 8.78532 34.8036 8.31043 33.0502 8.05472C32.5753 8.56614 31.516 9.15061 30.2374 9.66203C30.9315 9.15061 31.1141 8.42002 31.2603 7.9086C34.0913 6.75792 34.9132 4.91317 34.9132 4.91317C34.9132 4.91317 34.9132 4.91317 34 5.16888C34.7306 4.43828 35.8082 2.63006 36.1004 1.24194C35.4064 3.17801 33.1963 5.35153 31.3699 6.48395C31.4064 6.08212 31.2237 5.42458 30.8219 4.9497C30.0913 6.59353 27.3881 7.50678 26.7306 7.72595C26.0731 7.94513 25.6712 8.38349 25.4886 8.93143C25.3863 9.24194 25.5251 10.283 26.4383 10.3561C26.4383 10.3561 26 10.6849 25.3059 10.1734C24.9041 10.7579 23.9909 11.525 23.1507 11.5616C22.6429 11.5835 22.4931 10.904 22.7123 10.2465C21.032 11.3059 19.9361 13.4611 20.8128 15.6164C21.2146 15.0684 22.1644 14.3744 23.7717 13.7168C25.8575 12.862 28.4657 12.968 31.0959 13.662C30.7306 13.0045 30.1096 12.347 28.9406 11.7625C36.9041 11.6894 38.9607 17.2091 39.2968 19.7442C39.5525 21.6803 39.6804 27.4337 32.1552 28.5661C24.4 29.7351 17.379 24.3104 17.1598 16.0547C17.032 14.2465 16.7945 20.7671 17.0137 22.0091C18.2813 29.1981 26.8767 30.6666 31.589 30.4839C36.3014 30.3013 42.9132 25.4976 42.4383 19.1963ZM22.7854 12.8401C22.6393 12.5479 22.4566 12.5479 22.2009 12.694C21.9452 12.8401 21.653 13.1689 21.653 13.1689C21.8356 12.2922 22.4566 11.8538 22.6758 11.9634C22.895 12.073 23.0046 12.3652 22.7854 12.8401ZM28.5753 9.46111C27.3333 9.936 26.8767 9.80815 26.8767 9.80815C26.8767 8.78532 27.8995 8.71226 28.3014 8.52961C28.7032 8.34696 29.8356 8.01819 30.0183 7.57984C29.653 8.67573 29.2657 9.1981 28.5753 9.46111Z" fill="white"/>
<g clip-path="url(#clip0)">
<g filter="url(#filter0_d)">
<circle cx="16" cy="29" r="16" fill="white"/>
<path d="M15.9944 17.44L15.8389 17.9683V33.2949L15.9944 33.45L23.1087 29.2447L15.9944 17.44Z" fill="#343434"/>
<path d="M15.9945 17.44L8.88004 29.2447L15.9945 33.45V26.0109V17.44Z" fill="#8C8C8C"/>
<path d="M15.9944 34.797L15.9068 34.9039V40.3634L15.9944 40.6193L23.1131 30.5938L15.9944 34.797Z" fill="#3C3C3B"/>
<path d="M15.9945 40.6193V34.797L8.88007 30.5938L15.9945 40.6193Z" fill="#8C8C8C"/>
<path d="M15.9945 33.45L23.1088 29.2447L15.9945 26.0109V33.45Z" fill="#141414"/>
<path d="M8.88007 29.2447L15.9945 33.45V26.0109L8.88007 29.2447Z" fill="#393939"/>
</g>
</g>
<defs>
<filter id="filter0_d" x="-20" y="-27" width="92" height="92" filterUnits="userSpaceOnUse" color-interpolation-filters="sRGB">
<feFlood flood-opacity="0" result="BackgroundImageFix"/>
<feColorMatrix in="SourceAlpha" type="matrix" values="0 0 0 0 0 0 0 0 0 0 0 0 0 0 0 0 0 0 127 0"/>
<feOffset dx="10" dy="-10"/>
<feGaussianBlur stdDeviation="15"/>
<feColorMatrix type="matrix" values="0 0 0 0 0 0 0 0 0 0 0 0 0 0 0 0 0 0 0.5 0"/>
<feBlend mode="normal" in2="BackgroundImageFix" result="effect1_dropShadow"/>
<feBlend mode="normal" in="SourceGraphic" in2="effect1_dropShadow" result="shape"/>
</filter>
<linearGradient id="paint0_linear" x1="24.2519" y1="6.64982" x2="36.8692" y2="27.0415" gradientUnits="userSpaceOnUse">
<stop stop-color="white"/>
<stop offset="0.2597" stop-color="white" stop-opacity="0"/>
</linearGradient>
<linearGradient id="paint1_linear" x1="21.6177" y1="24.643" x2="38.6277" y2="7.63306" gradientUnits="userSpaceOnUse">
<stop stop-color="white"/>
<stop offset="1" stop-color="white" stop-opacity="0"/>
</linearGradient>
<clipPath id="clip0">
<rect width="32" height="32" fill="white" transform="translate(0 13)"/>
</clipPath>
</defs>
</svg>
