<svg width="46" height="45" viewBox="0 0 46 45" fill="none" xmlns="http://www.w3.org/2000/svg">
<path d="M30 32C38.9 32 46 24.9 46 16C46 7.1 38.9 0 30 0C21.1 0 14 7.1 14 16C14 24.9 21.1 32 30 32Z" fill="#2775CA"/>
<path d="M34.4 18.5C34.4 16.2 33 15.4 30.2 15C28.2 14.7 27.8 14.2 27.8 13.3C27.8 12.4 28.5 11.8 29.8 11.8C31 11.8 31.7 12.2 32 13.2C32.1 13.4 32.3 13.5 32.5 13.5H33.6C33.9 13.5 34.1 13.3 34.1 13V13C33.8 11.5 32.6 10.4 31.1 10.3V8.7C31.1 8.4 30.9 8.2 30.6 8.2H29.6C29.3 8.2 29.1 8.4 29.1 8.7V10.2C27.1 10.5 25.8 11.8 25.8 13.5C25.8 15.7 27.1 16.6 29.9 16.9C31.8 17.2 32.4 17.6 32.4 18.7C32.4 19.8 31.5 20.5 30.2 20.5C28.5 20.5 27.9 19.8 27.7 18.8C27.6 18.5 27.4 18.4 27.2 18.4H26.1C25.8 18.4 25.6 18.6 25.6 18.9V19C25.9 20.7 26.9 21.9 29.1 22.2V23.8C29.1 24.1 29.3 24.3 29.6 24.3H30.6C30.9 24.3 31.1 24.1 31.1 23.8V22.2C33.1 21.7 34.4 20.3 34.4 18.5Z" fill="white"/>
<path fill-rule="evenodd" clip-rule="evenodd" d="M20.7 12.7C18.8 17.8 21.4 23.6 26.6 25.5C26.8 25.6 27 25.9 27 26.1V27C27 27.1 27 27.2 26.9 27.3C26.8 27.6 26.6 27.7 26.3 27.6C22.6 26.4 19.7 23.5 18.5 19.8C16.5 13.5 20 6.70001 26.3 4.70001C26.4 4.60001 26.5 4.60001 26.6 4.60001C26.9 4.70001 27 4.90001 27 5.20001V6.10001C27 6.40001 26.9 6.60001 26.6 6.80001C23.9 7.80001 21.7 9.90001 20.7 12.7ZM33.1 5.00001C33.2 4.70001 33.4 4.60001 33.7 4.70001C37.4 5.90001 40.3 8.80001 41.5 12.6C43.5 18.9 40 25.7 33.7 27.7C33.6 27.8 33.5 27.8 33.4 27.8C33.1 27.7 33 27.5 33 27.3V26.4C33 26.1 33.1 25.9 33.4 25.7C36.1 24.7 38.3 22.6 39.3 19.8C41.2 14.7 38.6 8.90001 33.4 7.00001C33.2 6.70001 33 6.50001 33 6.20001V5.30001C33 5.10001 33 5.10001 33.1 5.00001Z" fill="white"/>
<g filter="url(#filter0_d)">
<circle cx="16" cy="29" r="16" fill="white"/>
</g>
<path d="M13.8763 27.6851L16.0499 32.4239L19.278 30.5891H19.2839V26.918L13.8763 27.6851Z" fill="#2BBDF7"/>
<path d="M23.4536 24.1636L21.4384 23.4186L19.2838 23.2455V26.918V34.687L22.5164 36.5232L25.0948 31.3518L23.4594 26.3739L23.4536 24.1636Z" fill="#2891F9"/>
<path d="M23.2658 23.2455L22.5164 25.0818V36.4954L25.7489 34.6576V23.2455H23.2658Z" fill="#2BBDF7"/>
<path d="M22.5164 21.4107L19.2838 23.2455L22.5164 25.0818L25.7489 23.2455L22.5164 21.4107Z" fill="#2B6DEF"/>
<path d="M16.0498 28.7528L12.8173 25.1859L6.35077 23.2455V34.6576L9.5833 36.4954L10.5088 30.1784L12.8173 30.5891L16.0498 32.4239V28.7528Z" fill="#2891F9"/>
<path d="M9.5833 21.4107L6.35077 23.2455L16.0498 28.7528L17.515 27.9227L19.2838 26.918L9.5833 21.4107Z" fill="#2B6DEF"/>
<path d="M9.58331 28.7528V36.4953L12.8173 34.6576V30.5891L9.58331 28.7528Z" fill="#2BBDF7"/>
<defs>
<filter id="filter0_d" x="0" y="9" width="36" height="36" filterUnits="userSpaceOnUse" color-interpolation-filters="sRGB">
<feFlood flood-opacity="0" result="BackgroundImageFix"/>
<feColorMatrix in="SourceAlpha" type="matrix" values="0 0 0 0 0 0 0 0 0 0 0 0 0 0 0 0 0 0 127 0"/>
<feOffset dx="2" dy="-2"/>
<feGaussianBlur stdDeviation="1"/>
<feColorMatrix type="matrix" values="0 0 0 0 0 0 0 0 0 0 0 0 0 0 0 0 0 0 0.29 0"/>
<feBlend mode="normal" in2="BackgroundImageFix" result="effect1_dropShadow"/>
<feBlend mode="normal" in="SourceGraphic" in2="effect1_dropShadow" result="shape"/>
</filter>
</defs>
</svg>
