<svg width="32" height="32" viewBox="0 0 32 32" fill="none" xmlns="http://www.w3.org/2000/svg">
<circle cx="16" cy="16" r="16" fill="#7950DD"/>
<path d="M9.56486 11.24L10.0294 10.9799C10.94 10.4701 12.05 10.4701 12.9606 10.9799L13.4251 11.24C14.3727 11.7705 14.9596 12.7717 14.9596 13.8576V14.4841L16.99 13.3285V11.3886C16.99 11.1248 16.8449 10.881 16.6093 10.7491L11.8757 8.09892C11.6401 7.96703 11.3499 7.96703 11.1143 8.09892L6.3807 10.7491C6.14512 10.881 6 11.1248 6 11.3886V16.689C6 16.9528 6.14512 17.1966 6.3807 17.3284L11.1143 19.9787C11.3499 20.1106 11.6401 20.1106 11.8757 19.9787L15.01 18.2238L17.0404 17.0215L19.0394 15.9023C19.95 15.3925 21.06 15.3925 21.9706 15.9023L22.4351 16.1624C23.3827 16.6929 23.9696 17.6941 23.9696 18.78V19.1424C23.9696 20.2283 23.3827 21.2295 22.4351 21.76L21.9706 22.0201C21.06 22.5299 19.95 22.5299 19.0394 22.0201L18.5749 21.76C17.6273 21.2295 17.0404 20.2283 17.0404 19.1424V18.6771L15.01 19.8325V21.6114C15.01 21.8752 15.1551 22.119 15.3907 22.2509L20.1243 24.9011C20.3599 25.033 20.6501 25.033 20.8857 24.9011L25.6193 22.2509C25.8549 22.119 26 21.8752 26 21.6114V16.311C26 16.0472 25.8549 15.8034 25.6193 15.6716L20.8857 13.0213C20.6501 12.8894 20.3599 12.8894 20.1243 13.0213L19.648 13.288L14.9596 15.9785L12.9606 17.0977C12.05 17.6075 10.94 17.6075 10.0294 17.0977L9.56486 16.8376C8.6173 16.3071 8.03042 15.3059 8.03042 14.22V13.8576C8.03042 12.7717 8.6173 11.7705 9.56486 11.24Z" fill="white"/>
</svg>
