<svg width="46" height="45" viewBox="0 0 46 45" fill="none" xmlns="http://www.w3.org/2000/svg">
<path d="M30 32C38.9 32 46 24.9 46 16C46 7.1 38.9 0 30 0C21.1 0 14 7.1 14 16C14 24.9 21.1 32 30 32Z" fill="#2775CA"/>
<path d="M34.4 18.5C34.4 16.2 33 15.4 30.2 15C28.2 14.7 27.8 14.2 27.8 13.3C27.8 12.4 28.5 11.8 29.8 11.8C31 11.8 31.7 12.2 32 13.2C32.1 13.4 32.3 13.5 32.5 13.5H33.6C33.9 13.5 34.1 13.3 34.1 13V13C33.8 11.5 32.6 10.4 31.1 10.3V8.7C31.1 8.4 30.9 8.2 30.6 8.2H29.6C29.3 8.2 29.1 8.4 29.1 8.7V10.2C27.1 10.5 25.8 11.8 25.8 13.5C25.8 15.7 27.1 16.6 29.9 16.9C31.8 17.2 32.4 17.6 32.4 18.7C32.4 19.8 31.5 20.5 30.2 20.5C28.5 20.5 27.9 19.8 27.7 18.8C27.6 18.5 27.4 18.4 27.2 18.4H26.1C25.8 18.4 25.6 18.6 25.6 18.9V19C25.9 20.7 26.9 21.9 29.1 22.2V23.8C29.1 24.1 29.3 24.3 29.6 24.3H30.6C30.9 24.3 31.1 24.1 31.1 23.8V22.2C33.1 21.7 34.4 20.3 34.4 18.5Z" fill="white"/>
<path fill-rule="evenodd" clip-rule="evenodd" d="M20.7 12.7C18.8 17.8 21.4 23.6 26.6 25.5C26.8 25.6 27 25.9 27 26.1V27C27 27.1 27 27.2 26.9 27.3C26.8 27.6 26.6 27.7 26.3 27.6C22.6 26.4 19.7 23.5 18.5 19.8C16.5 13.5 20 6.70001 26.3 4.70001C26.4 4.60001 26.5 4.60001 26.6 4.60001C26.9 4.70001 27 4.90001 27 5.20001V6.10001C27 6.40001 26.9 6.60001 26.6 6.80001C23.9 7.80001 21.7 9.90001 20.7 12.7ZM33.1 5.00001C33.2 4.70001 33.4 4.60001 33.7 4.70001C37.4 5.90001 40.3 8.80001 41.5 12.6C43.5 18.9 40 25.7 33.7 27.7C33.6 27.8 33.5 27.8 33.4 27.8C33.1 27.7 33 27.5 33 27.3V26.4C33 26.1 33.1 25.9 33.4 25.7C36.1 24.7 38.3 22.6 39.3 19.8C41.2 14.7 38.6 8.90001 33.4 7.00001C33.2 6.70001 33 6.50001 33 6.20001V5.30001C33 5.10001 33 5.10001 33.1 5.00001Z" fill="white"/>
<path d="M16 13C24.8374 13 32 20.1641 32 29C32 37.8374 24.8374 45 16 45C7.16407 45 0 37.8366 0 29C0 20.1641 7.16407 13 16 13Z" fill="#F5AC37"/>
<path fill-rule="evenodd" clip-rule="evenodd" d="M8.38016 37.8201V37.8799L8.37728 37.882V37.8921H15.3174C16.103 37.9029 16.8856 37.8403 17.6575 37.702C18.4703 37.5429 19.2623 37.2923 20.0176 36.9525C20.3451 36.8008 20.6593 36.6175 20.9763 36.4325C21.0566 36.3857 21.137 36.3388 21.2179 36.2922C21.5909 36.0266 21.948 35.7386 22.2878 35.4326C23.2181 34.5916 23.9381 33.5425 24.3881 32.3725C24.4183 32.2415 24.5465 32.1572 24.6782 32.1824H26.5683C26.7187 32.1824 26.7684 32.132 26.7684 31.9621V30.7518C26.7785 30.6359 26.7785 30.5185 26.7684 30.4026C26.7684 30.3723 26.7762 30.3421 26.784 30.3119C26.7995 30.2518 26.8149 30.1918 26.7684 30.1319H25.1894C24.9986 30.1319 24.9986 30.1117 24.9986 29.9418C25.0534 29.3327 25.0534 28.7214 24.9986 28.1122C24.9886 27.9322 25.0289 27.9322 25.1686 27.9322H26.5488C26.7094 27.9322 26.7691 27.8919 26.7691 27.7321V26.0919C26.7642 25.9833 26.7617 25.9282 26.7328 25.9003C26.7032 25.8716 26.6458 25.8716 26.5294 25.8716H24.7394C24.5998 25.8953 24.4658 25.801 24.4406 25.6613C24.2354 25.1249 23.9741 24.6116 23.6594 24.1313C23.3426 23.6576 22.9855 23.2126 22.5895 22.8015C22.0632 22.2759 21.4721 21.8194 20.8298 21.4414C19.8614 20.879 18.8023 20.4852 17.6999 20.2814C17.165 20.1828 16.6242 20.123 16.0799 20.1014H8.58032C8.38016 20.1014 8.38016 20.1418 8.38016 20.3016V25.6916C8.38016 25.8817 8.33984 25.8817 8.19008 25.8817H6.04014C5.88029 25.8817 5.88029 25.9112 5.88029 26.0213V27.781C5.88029 27.9409 5.92998 27.9409 6.05022 27.9409H8.22032C8.38016 27.9409 8.38016 27.9704 8.38016 28.0906V29.9706C8.38016 30.1405 8.32976 30.1405 8.20016 30.1405H5.88029V32.0406C5.88029 32.2004 5.92998 32.2004 6.05022 32.2004H8.22032C8.38016 32.2004 8.38016 32.2199 8.38016 32.3502V34.7003V35.4902V37.8201ZM22.1907 25.7103C22.208 25.7549 22.208 25.8046 22.1907 25.85H22.2389C22.2188 25.9097 22.1187 25.9299 22.1187 25.9299H10.5791C10.389 25.9299 10.389 25.8896 10.389 25.7398V22.1902C10.389 22.0598 10.4092 22.0001 10.559 22.0001H15.9288C16.5005 21.995 17.0707 22.0548 17.6287 22.1801C18.7346 22.4422 19.7635 22.9635 20.629 23.7C20.8018 23.8289 20.9559 23.9808 21.0891 24.15C21.3713 24.4301 21.619 24.7419 21.8292 25.0803C21.9689 25.2783 22.0891 25.4892 22.1907 25.7103ZM22.6695 30.1297H16.5898H10.6296C10.3898 30.1297 10.3898 30.1297 10.3898 29.9V28.1202C10.3898 27.9798 10.4301 27.9301 10.5799 27.9301H22.6796C22.8099 27.9301 22.8697 27.9798 22.8697 28.1C22.9194 28.7192 22.9194 29.3413 22.8697 29.9598C22.8603 30.1297 22.7991 30.1297 22.6695 30.1297ZM22.1907 32.2098C22.0208 32.1911 21.8494 32.1911 21.6795 32.2098H10.59C10.4402 32.2098 10.3898 32.2098 10.3898 32.41V35.8804C10.3898 36.0402 10.3898 36.0806 10.59 36.0806H15.7099C15.9547 36.0993 16.1995 36.082 16.4393 36.0309C17.1823 35.9776 17.9131 35.8163 18.6101 35.5506C18.8636 35.4628 19.1084 35.3483 19.3395 35.2108H19.4093C20.6096 34.5865 21.5845 33.6059 22.1993 32.402C22.1993 32.402 22.2692 32.2508 22.1907 32.2112V32.2098Z" fill="#FEFEFD"/>
</svg>
