<svg width="46" height="45" viewBox="0 0 46 45" fill="none" xmlns="http://www.w3.org/2000/svg">
<path d="M30 0C38.8362 0 46 7.16384 46 16C46 24.8362 38.8358 32 30 32C21.1642 32 14 24.8381 14 16C14 7.16192 21.1629 0 30 0" fill="#23A881"/>
<path fill-rule="evenodd" clip-rule="evenodd" d="M31.9713 11.5151V13.8923L31.9726 13.893C36.3826 14.0965 39.6978 14.971 39.6978 16.0184C39.6978 17.0657 36.3826 17.9402 31.9726 18.1438V25.7591H28.042V18.1444C23.6255 17.9402 20.302 17.0651 20.302 16.0168C20.302 14.9684 23.6239 14.0933 28.042 13.8904V11.5151H22.6058V7.89293H37.4069V11.5151H31.9713ZM31.9727 17.4968V17.4988L31.9733 17.4972C35.8676 17.3236 38.7756 16.6428 38.7756 15.8323C38.7756 15.0218 35.8688 14.3413 31.9733 14.1678V16.8222C31.8615 16.8324 31.252 16.8829 30.0399 16.8829C29.0307 16.8829 28.2996 16.8397 28.0439 16.8222V14.1678C24.141 14.341 21.2272 15.0199 21.2272 15.8333C21.2272 16.6467 24.1407 17.3265 28.0439 17.4994V17.4962C28.2954 17.5093 29.009 17.5381 30.0233 17.5381C31.292 17.5381 31.8618 17.5039 31.9727 17.4968Z" fill="white"/>
<path d="M16 45C24.9 45 32 37.9 32 29C32 20.1 24.9 13 16 13C7.1 13 0 20.1 0 29C0 37.9 7.1 45 16 45Z" fill="#2775CA"/>
<path d="M20.4 31.5C20.4 29.2 19 28.4 16.2 28C14.2 27.7 13.8 27.2 13.8 26.3C13.8 25.4 14.5 24.8 15.8 24.8C17 24.8 17.7 25.2 18 26.2C18.1 26.4 18.3 26.5 18.5 26.5H19.6C19.9 26.5 20.1 26.3 20.1 26V26C19.8 24.5 18.6 23.4 17.1 23.3V21.7C17.1 21.4 16.9 21.2 16.6 21.2H15.6C15.3 21.2 15.1 21.4 15.1 21.7V23.2C13.1 23.5 11.8 24.8 11.8 26.5C11.8 28.7 13.1 29.6 15.9 29.9C17.8 30.2 18.4 30.6 18.4 31.7C18.4 32.8 17.5 33.5 16.2 33.5C14.5 33.5 13.9 32.8 13.7 31.8C13.6 31.5 13.4 31.4 13.2 31.4H12.1C11.8 31.4 11.6 31.6 11.6 31.9V32C11.9 33.7 12.9 34.9 15.1 35.2V36.8C15.1 37.1 15.3 37.3 15.6 37.3H16.6C16.9 37.3 17.1 37.1 17.1 36.8V35.2C19.1 34.7 20.4 33.3 20.4 31.5Z" fill="white"/>
<path fill-rule="evenodd" clip-rule="evenodd" d="M6.7 25.7C4.8 30.8 7.4 36.6 12.6 38.5C12.8 38.6 13 38.9 13 39.1V40C13 40.1 13 40.2 12.9 40.3C12.8 40.6 12.6 40.7 12.3 40.6C8.6 39.4 5.7 36.5 4.5 32.8C2.5 26.5 6 19.7 12.3 17.7C12.4 17.6 12.5 17.6 12.6 17.6C12.9 17.7 13 17.9 13 18.2V19.1C13 19.4 12.9 19.6 12.6 19.8C9.9 20.8 7.7 22.9 6.7 25.7ZM19.1 18C19.2 17.7 19.4 17.6 19.7 17.7C23.4 18.9 26.3 21.8 27.5 25.6C29.5 31.9 26 38.7 19.7 40.7C19.6 40.8 19.5 40.8 19.4 40.8C19.1 40.7 19 40.5 19 40.3V39.4C19 39.1 19.1 38.9 19.4 38.7C22.1 37.7 24.3 35.6 25.3 32.8C27.2 27.7 24.6 21.9 19.4 20C19.2 19.7 19 19.5 19 19.2V18.3C19 18.1 19 18.1 19.1 18Z" fill="white"/>
</svg>
