<svg width="46" height="45" viewBox="0 0 46 45" fill="none" xmlns="http://www.w3.org/2000/svg">
<path d="M30 0C38.8374 0 46 7.16407 46 16C46 24.8374 38.8374 32 30 32C21.1641 32 14 24.8366 14 16C14 7.16407 21.1641 0 30 0Z" fill="#F5AC37"/>
<path fill-rule="evenodd" clip-rule="evenodd" d="M22.3802 24.8201V24.8799L22.3773 24.882V24.8921H29.3174C30.103 24.9029 30.8856 24.8403 31.6575 24.702C32.4703 24.5429 33.2623 24.2923 34.0176 23.9525C34.3451 23.8008 34.6593 23.6175 34.9763 23.4325C35.0566 23.3857 35.137 23.3388 35.2179 23.2922C35.5909 23.0266 35.948 22.7386 36.2878 22.4326C37.2181 21.5916 37.9381 20.5425 38.3881 19.3725C38.4183 19.2415 38.5465 19.1572 38.6782 19.1824H40.5683C40.7187 19.1824 40.7684 19.132 40.7684 18.9621V17.7518C40.7785 17.6359 40.7785 17.5185 40.7684 17.4026C40.7684 17.3723 40.7762 17.3421 40.784 17.3119C40.7995 17.2518 40.8149 17.1918 40.7684 17.1319H39.1894C38.9986 17.1319 38.9986 17.1117 38.9986 16.9418C39.0534 16.3327 39.0534 15.7214 38.9986 15.1122C38.9886 14.9322 39.0289 14.9322 39.1686 14.9322H40.5488C40.7094 14.9322 40.7691 14.8919 40.7691 14.7321V13.0919C40.7642 12.9833 40.7617 12.9282 40.7328 12.9003C40.7032 12.8716 40.6458 12.8716 40.5294 12.8716H38.7394C38.5998 12.8953 38.4658 12.801 38.4406 12.6613C38.2354 12.1249 37.9741 11.6116 37.6594 11.1313C37.3426 10.6576 36.9855 10.2126 36.5895 9.80147C36.0632 9.27586 35.4721 8.81938 34.8298 8.44137C33.8614 7.87905 32.8023 7.4852 31.6999 7.28144C31.165 7.1828 30.6242 7.12304 30.0799 7.10144H22.5803C22.3802 7.10144 22.3802 7.14176 22.3802 7.3016V12.6916C22.3802 12.8817 22.3398 12.8817 22.1901 12.8817H20.0401C19.8803 12.8817 19.8803 12.9112 19.8803 13.0213V14.781C19.8803 14.9409 19.93 14.9409 20.0502 14.9409H22.2203C22.3802 14.9409 22.3802 14.9704 22.3802 15.0906V16.9706C22.3802 17.1405 22.3298 17.1405 22.2002 17.1405H19.8803V19.0406C19.8803 19.2004 19.93 19.2004 20.0502 19.2004H22.2203C22.3802 19.2004 22.3802 19.2199 22.3802 19.3502V21.7003V22.4902V24.8201ZM36.1907 12.7103C36.208 12.7549 36.208 12.8046 36.1907 12.85H36.2389C36.2188 12.9097 36.1187 12.9299 36.1187 12.9299H24.5791C24.389 12.9299 24.389 12.8896 24.389 12.7398V9.19017C24.389 9.05985 24.4092 9.00009 24.559 9.00009H29.9288C30.5005 8.99505 31.0707 9.05481 31.6287 9.18009C32.7346 9.44217 33.7635 9.96346 34.629 10.7C34.8018 10.8289 34.9559 10.9808 35.0891 11.15C35.3713 11.4301 35.619 11.7419 35.8292 12.0803C35.9689 12.2783 36.0891 12.4892 36.1907 12.7103ZM36.6695 17.1297H30.5898H24.6296C24.3898 17.1297 24.3898 17.1297 24.3898 16.9V15.1202C24.3898 14.9798 24.4301 14.9301 24.5799 14.9301H36.6796C36.8099 14.9301 36.8697 14.9798 36.8697 15.1C36.9194 15.7192 36.9194 16.3413 36.8697 16.9598C36.8603 17.1297 36.7991 17.1297 36.6695 17.1297ZM36.1907 19.2098C36.0208 19.1911 35.8494 19.1911 35.6795 19.2098H24.59C24.4402 19.2098 24.3898 19.2098 24.3898 19.41V22.8804C24.3898 23.0402 24.3898 23.0806 24.59 23.0806H29.7099C29.9547 23.0993 30.1995 23.082 30.4393 23.0309C31.1823 22.9776 31.9131 22.8163 32.6101 22.5506C32.8636 22.4628 33.1084 22.3483 33.3395 22.2108H33.4093C34.6096 21.5865 35.5845 20.6059 36.1993 19.402C36.1993 19.402 36.2692 19.2508 36.1907 19.2112V19.2098Z" fill="#FEFEFD"/>
<circle cx="16" cy="29" r="16" fill="white"/>
<path d="M15.9944 17.44L15.8389 17.9683V33.2949L15.9944 33.45L23.1087 29.2447L15.9944 17.44Z" fill="#343434"/>
<path d="M15.9945 17.44L8.88004 29.2447L15.9945 33.45V26.0109V17.44Z" fill="#8C8C8C"/>
<path d="M15.9944 34.797L15.9068 34.9039V40.3634L15.9944 40.6193L23.1131 30.5938L15.9944 34.797Z" fill="#3C3C3B"/>
<path d="M15.9946 40.6193V34.797L8.88008 30.5938L15.9946 40.6193Z" fill="#8C8C8C"/>
<path d="M15.9945 33.45L23.1088 29.2447L15.9945 26.0109V33.45Z" fill="#141414"/>
<path d="M8.88008 29.2447L15.9946 33.45V26.0109L8.88008 29.2447Z" fill="#393939"/>
</svg>
