<?xml version="1.0" encoding="UTF-8"?>
<svg width="200px" height="200px" viewBox="0 0 200 200" version="1.1" xmlns="http://www.w3.org/2000/svg" xmlns:xlink="http://www.w3.org/1999/xlink">
    <title>BunnyLogo</title>
    <defs>
        <circle id="path-1" cx="100" cy="100" r="100"></circle>
        <path d="M43.75,58 C67.9124578,58 87.5,50 87.5,37.375 C87.5,24.75 67.9124578,0 43.75,0 C19.5875422,0 0,24.75 0,37.375 C0,50 19.5875422,58 43.75,58 Z" id="path-3"></path>
    </defs>
    <g id="BunnyLogo" stroke="none" stroke-width="1" fill="none" fill-rule="evenodd">
        <mask id="mask-2" fill="white">
            <use xlink:href="#path-1"></use>
        </mask>
        <use id="Oval" stroke="#979797" stroke-width="0.5" fill="#D8D8D8" xlink:href="#path-1"></use>
        <rect id="background" fill="#4ED8DE" mask="url(#mask-2)" x="0" y="0" width="200" height="200"></rect>
        <g id="Group" mask="url(#mask-2)">
            <g transform="translate(0.375000, 0.215565)" id="Bunny">
                <g id="bunny" transform="translate(33.000000, 37.250000)">
                    <g id="face">
                        <path d="M90.5,2.5 C94.2279221,2.5 97.6029221,4.01103897 100.045942,6.45405845 C102.488961,8.89707794 104,12.2720779 104,16 C104,16.4037464 103.982344,16.8033644 103.947713,17.1981193 L103.947713,17.1981193 L99.5628048,45.7368912 C107.96285,49.1480181 114.914405,53.8439839 119.639257,59.4195816 C123.690813,64.2006505 126.088994,69.625686 126.242165,75.4079521 L126.242165,75.4079521 L126.25,76.0161041 L126.25,87 C126.25,96.9422389 119.660246,105.813273 109.369675,112.284017 C98.5583198,119.082233 83.6147611,123.25 67.125,123.25 C50.8117865,123.25 36.0122095,119.17074 25.2287051,112.501276 C14.9421654,106.139177 8.26778285,97.4072609 8.00783537,87.5920512 L8.00783537,87.5920512 L8,86.9838959 L8,76.0161041 L8.00783533,75.4079521 C8.16101229,69.6254533 10.5593795,64.2002151 14.6112303,59.4190061 C19.3383439,53.8409828 26.2941152,49.1433902 34.6992965,45.7319787 L34.6992965,45.7319787 L30.2595054,17.8617882 C30.2741156,17.4508555 30.2674526,17.0380468 30.2587993,16.622447 C30.2544979,16.415864 30.25,16.2084376 30.25,16 C30.25,12.2720779 31.761039,8.89707794 34.2040585,6.45405845 C36.6470779,4.01103897 40.0220779,2.5 43.75,2.5 C47.4297725,2.5 50.7657082,3.97222527 53.2008244,6.3598729 C55.6355698,8.74715703 57.1701745,12.049458 57.2469666,15.7104051 L57.2469666,15.7104051 L57.2498799,40.2579961 C60.4626906,39.9237676 63.7615614,39.75 67.125,39.75 C70.4887757,39.75 73.7879707,39.9238024 77.0010862,40.2580966 L77.0010862,40.2580966 L77.0000011,16.0245682 C77.0778366,12.2272702 78.5998179,8.84815988 81.0319581,6.4160197 C83.4667731,3.98120469 86.8105539,2.5 90.5,2.5 Z" id="Combined-Shape" stroke="#EC6998" stroke-width="5" fill="#FACFD8"></path>
                        <ellipse id="Oval" fill="#EC6998" cx="120.25" cy="81" rx="13.75" ry="9.25"></ellipse>
                        <ellipse id="Oval" fill="#EC6998" cx="13.75" cy="81" rx="13.75" ry="9.25"></ellipse>
                    </g>
                    <g id="mouth" transform="translate(23.500000, 67.750000)">
                        <mask id="mask-4" fill="white">
                            <use xlink:href="#path-3"></use>
                        </mask>
                        <use id="Oval" fill="#000000" xlink:href="#path-3"></use>
                        <ellipse id="Oval" fill="#FFFFFF" mask="url(#mask-4)" cx="43.875" cy="0.125" rx="2.875" ry="5.125"></ellipse>
                        <path d="M43.2047662,60.5 C62.3660123,60.5 82.8556293,53.675 86.8424742,47.1125 C90.8293191,40.55 62.4979122,34.25 43.3366661,34.25 C24.1754199,34.25 -3.8921872,40.55 0.106211159,47.1125 C4.10460952,53.675 24.0435201,60.5 43.2047662,60.5 Z" id="Oval" fill="#EC6998" mask="url(#mask-4)"></path>
                    </g>
                    <g id="eyes" transform="translate(35.814485, 57.009184)" fill="#000000">
                        <path d="M8.18251188,7.86375816 C13.0150034,7.86375816 17.5,8.26878306 17.5,6.75 C17.5,5.23121694 13.5824916,4 8.75,4 C3.91750844,4 0,5.23121694 0,6.75 C0,8.26878306 3.35002031,7.86375816 8.18251188,7.86375816 Z" id="Oval" transform="translate(8.750000, 5.956381) rotate(-27.000000) translate(-8.750000, -5.956381) "></path>
                        <path d="M53.0525119,7.86375816 C57.8850034,7.86375816 62.37,8.26878306 62.37,6.75 C62.37,5.23121694 58.4524916,4 53.62,4 C48.7875084,4 44.87,5.23121694 44.87,6.75 C44.87,8.26878306 48.2200203,7.86375816 53.0525119,7.86375816 Z" id="Oval" transform="translate(53.620000, 5.956381) scale(-1, 1) rotate(-27.000000) translate(-53.620000, -5.956381) "></path>
                    </g>
                </g>
            </g>
        </g>
    </g>
</svg>